<?xml version="1.0" encoding="utf-8"?>
<!-- Generator: Adobe Illustrator 22.0.1, SVG Export Plug-In . SVG Version: 6.00 Build 0)  -->
<svg version="1.1" id="Layer_1" xmlns="http://www.w3.org/2000/svg" xmlns:xlink="http://www.w3.org/1999/xlink" x="0px" y="0px"
	 viewBox="0 0 1459 1459" style="enable-background:new 0 0 1459 1459;" xml:space="preserve">
<style type="text/css">
	.st0{fill:#8F793C;}
</style>
<g transform="translate(0.000000,1459.000000) scale(0.100000,-0.100000)">
	<path class="st0" d="M11378,13819c-241-37-419-201-501-464c-14-44-28-104-32-134s-8-61-10-70c-1-9-6-41-9-71c-14-108-17-135-21-160
		c-2-14-11-81-20-150c-8-69-18-143-21-165c-2-22-7-58-10-80c-2-22-7-58-10-80c-2-22-7-56-9-75c-3-19-7-57-10-85c-3-27-7-61-10-75
		c-2-14-7-50-10-80c-4-30-8-66-10-80s-9-65-15-115c-6-49-13-110-17-135c-30-229-57-473-53-479c3-5,32-11,65-15c84-10,118-15,215-31
		c47-8,101-16,120-19c52-8,110-17,134-22c11-2,73-13,136-25c129-23,367-73,455-95c11-3,29-7,40-9c11-3,72-19,135-36
		c63-16,131-34,150-38c115-27,592-189,705-241c11-5,49-21,85-36c111-46,131-55,285-129c173-84,273-139,438-239c65-39,126-76,135-81
		c48-30,139-91,228-154l99-72l5,43c12,105,2,631-15,748c-2,14-7,57-11,95c-3,39-8,79-10,90c-3,11-9,54-15,95c-10,74-66,337-74,350
		c-2,4-6,20-9,37c-6,29-52,185-80,266c-134,391-343,763-610,1087c-177,214-423,454-560,546c-192,129-506,254-802,319
		c-10,2-81,18-158,35C11552,13822,11457,13831,11378,13819z"/>
	<path class="st0" d="M9592,9631c-265-534-482-974-482-980c0-8,114-99,246-196c43-32,206-154,239-180c38-29,453-342,655-494
		c85-64,157-118,160-121s183-139,400-303c217-163,577-435,800-603s599-451,835-630c237-178,585-441,774-584c190-143,347-260,350-260
		s82,179,176,398c93,218,179,420,192,447c12,28,92,214,178,415c183,428,181,423,206,476c10,23,19,44,19,47c0,4,11,30,24,59
		s38,87,56,128s43,99,56,128s24,55,24,57c0,5,15,40,66,153c24,52,24,54,24,424v371l-49,66c-27,36-101,144-164,238
		c-250,373-383,517-622,678c-33,22-62,42-65,45c-5,6-136,93-175,117c-433,266-844,455-1340,616c-282,92-676,196-960,253
		c-11,2-87,17-170,34c-279,56-289,58-341,65c-21,3-59,10-84,15s-74,14-110,19c-36,6-76,13-90,16s-38,7-55,9c-16,2-75,12-130,21
		s-114,18-130,21l-30,5L9592,9631z"/>
	<path class="st0" d="M8200,8409c-30-4-77-10-105-13c-82-9-137-16-190-26c-27-5-66-12-85-15c-40-7-197-45-284-70
		c-82-23-247-89-331-133c-231-121-429-298-570-512c-133-201-202-474-174-688c4-31,10-88,14-127c3-38,8-81,10-95c4-23,21-154,31-223
		c11-89,31-219,39-257c3-14,7-41,10-60s7-46,10-60s8-41,11-60c17-99,97-484,128-615c208-875,526-1774,958-2705
		c226-487,615-1236,737-1419c50-76,195-235,261-286c172-134,390-225,625-261c17-3,41-7,54-10c14-3,116,26,265,76
		c341,115,436,158,591,265c33,23,112,77,175,120c166,113,544,378,550,385c3,3,41,30,85,60s85,58,90,63c6,5,56,41,111,80
		c111,78,373,267,389,280c12,9,244,178,335,244c189,136,657,489,740,558c194,159,455,441,575,620c71,106,141,258,171,370
		c21,79,27,123,27,210c1,118-3,142-33,254c-17,63-81,196-128,265c-77,113-252,286-382,378c-14,10-48,35-77,55c-28,21-114,80-190,132
		c-112,77-366,262-420,306c-25,20-40,32-143,110c-58,44-112,85-120,92s-116,90-240,184c-273,209-420,321-481,369c-25,19-60,46-78,60
		c-51,38-303,232-342,262c-28,22-229,176-353,271c-117,89-356,272-381,291c-188,146-569,438-596,457c-19,13-43,31-54,41
		c-24,21-285,220-730,557C8422,8404,8361,8430,8200,8409z"/>
	<path class="st0" d="M5687,6694c-1-1-42-5-92-9c-49-4-97-9-106-10c-9-2-52-6-95-10c-43-3-90-8-104-11c-14-2-54-6-90-9s-85-7-110-10
		c-190-19-229-23-309-30c-41-4-83-9-94-11c-10-2-58-6-105-10c-48-3-94-7-103-9c-8-2-55-6-105-10c-49-3-96-8-104-10s-46-7-85-10
		c-68-6-108-9-210-20c-27-3-68-8-90-10s-71-7-110-10c-91-8-129-14-136-23c-3-4-13-52-22-107s-19-111-22-125c-11-57-15-77-20-110
		c-3-19-19-109-35-200s-31-183-35-205c-3-22-7-47-10-55c-2-8-6-37-10-65c-3-27-10-75-15-105s-11-77-15-105c-3-27-8-63-10-80
		c-5-32-10-81-20-180c-3-33-7-73-10-90c-2-16-7-61-10-100c-4-38-8-81-10-95s-7-65-10-115c-4-49-8-106-10-125c-27-238-27-969-1-1190
		c3-19,7-62,11-95c6-65,32-245,40-285c3-14,7-38,10-55c24-138,81-368,128-515c181-563,481-929,892-1090c182-71,307-94,580-106
		c179-8,1680-11,2049-4l259,5l24,72l24,71l-44,69c-50,79-184,299-217,358c-229,407-349,648-527,1065c-41,96-76,180-77,185
		c-1,6-20,55-41,110c-22,55-40,102-41,105c0,3-3,12-7,20c-54,135-246,738-272,853c-2,12-23,94-45,182c-34,133-69,281-85,355
		c-11,54-65,322-71,355c-4,22-8,46-10,53c-4,20-27,155-30,172c-1,8-9,62-18,120c-9,57-19,120-21,139c-11,85-26,198-31,223
		c-2,15-6,49-9,75c-7,74-16,155-21,183c-2,14-6,61-9,105s-8,96-10,115c-3,19-7,60-9,90c-9,122-18,247-21,285c-1,22-3,44-4,48
		C5770,6700,5694,6700,5687,6694z"/>
	<path class="st0" d="M593,6655c-139-21-259-107-359-257c-46-70-149-265-199-378l-29-65l-1-330l-1-330l57-165
		c215-632,532-1128,1000-1564c187-174,491-393,754-542c102-57,437-224,451-224c2,0,23-9,47-19c112-52,416-165,424-158
		c3,3-7,45-20,94c-50,173-93,351-111,458c-3,17-12,71-20,120c-9,50-18,110-21,135s-8,56-10,70s-7,57-10,95c-4,39-8,81-10,95
		c-26,179-26,883,0,1087c2,15,6,66,10,111c4,46,8,91,10,100c1,10,6,46,9,82c10,94,16,142,21,170c3,14,7,43,10,65s7,55,10,73
		c2,18,7,52,10,75s8,53,10,67c3,14,7,41,10,60s7,46,10,60s7,41,10,60c8,49,44,246,55,300c6,25,12,61,15,80s12,67,20,107
		c18,87,18,80,3,80c-7,0-31,3-53,7c-177,29-288,46-335,51c-30,3-62,8-70,10s-37,7-65,10c-27,3-61,7-75,10c-23,4-94,15-195,31
		c-22,3-87,15-145,25c-58,11-118,22-135,25c-68,12-245,58-381,100c-126,38-225,66-284,79C828,6658,696,6670,593,6655z"/>
</g>
</svg>
