<svg id="Layer_1" data-name="Layer 1" xmlns="http://www.w3.org/2000/svg" viewBox="0 0 154.3 101.48"><defs><style>.cls-1,.cls-2{fill:none;}.cls-1{stroke:#000;stroke-miterlimit:10;stroke-width:0.75px;}</style></defs><title>bakeandgo_logo_01_black</title><path d="M16.23,76c0,2.63-1.71,5-6.29,5H0V63H9.63c4.48,0,6.11,2.32,6.11,4.68a4,4,0,0,1-3.26,4A4.08,4.08,0,0,1,16.23,76ZM3.54,65.58v5H9c2.62,0,3.18-1.32,3.18-2.54S11.46,65.58,9,65.58Zm9.1,10.16c0-1.53-1-2.65-3.26-2.65H3.54v5.38H9.27C11.72,78.47,12.64,77.27,12.64,75.74Z" transform="translate(0 0)"/><path d="M31.81,76.66H23l-1.79,4.41H17.5L25.4,63h4l7.9,18.09H33.6Zm-1-2.57-2.25-5.56a15.44,15.44,0,0,1-1.12-2.9h-.05a17.14,17.14,0,0,1-1.14,2.9L24,74.09Z" transform="translate(0 0)"/><path d="M47.17,72.35l-3.51,3.37v5.35H40.12V63h3.54v8.79L52.57,63h4.36L49.72,70l7.77,11H53.34Z" transform="translate(0 0)"/><path d="M74.78,78.36v2.71H60.39V63H74.6v2.7H63.93v4.84H74.17v2.62H63.93v5.22Z" transform="translate(0 0)"/><path d="M103.61,78.57v2.52a5.51,5.51,0,0,1-1.63.26,6,6,0,0,1-4-1.63A9.9,9.9,0,0,1,92,81.57c-4.51,0-7-2.16-7-5.09,0-2.24,1.3-3.69,4.15-5.07-1.66-1.68-2.45-3-2.45-4.59,0-2.8,2.27-4.53,5.46-4.53s5.4,1.66,5.4,4.28a5.48,5.48,0,0,1-3.34,4.66l-.84.44L98,76a11.33,11.33,0,0,0,1.74-5.12l2.7.45A12.44,12.44,0,0,1,100,77.78a3.9,3.9,0,0,0,2.5.92A3.85,3.85,0,0,0,103.61,78.57Zm-11.21.56A6.29,6.29,0,0,0,96.1,78L90.85,73c-1.78.94-2.44,1.78-2.44,3.18C88.41,77.93,90.14,79.13,92.4,79.13ZM89.86,66.7c0,1,.38,1.88,1.93,3.44l.72-.33a3.31,3.31,0,0,0,2.06-3.14,2.11,2.11,0,0,0-2.39-2.24A2.08,2.08,0,0,0,89.86,66.7Z" transform="translate(0 0)"/><path d="M113,72.07c0-5.65,3.77-9.6,10-9.6,5.2,0,8.08,2.75,8.79,5.68l-3.64.61c-.46-1.83-2.09-3.57-5.25-3.57-3.92,0-6.24,2.73-6.24,6.88,0,4,2.22,6.78,6.27,6.78s5.73-2.7,5.78-4.74v-.23h-6V71.31h9.25v9.76h-2.6l-.25-3c-1.07,2-3.44,3.46-6.85,3.46C116.5,81.57,113,77.65,113,72.07Z" transform="translate(0 0)"/><path d="M134.33,72c0-5.86,3.95-9.55,10-9.55s10,3.69,10,9.55-4,9.55-10,9.55S134.33,77.83,134.33,72Zm16.28,0c0-4.15-2.43-6.78-6.3-6.78S138,67.87,138,72s2.42,6.78,6.29,6.78S150.61,76.17,150.61,72Z" transform="translate(0 0)"/><path class="cls-1" d="M78.12,9.7c3,2.4,6.29,5.15,7,9A1.46,1.46,0,0,1,84.89,20c-.5.5-1.33.14-1.92-.24L66.1,9.05a18.2,18.2,0,0,0-5.46-2.66c-2.78-.66-5.7,0-8.41,1a45,45,0,0,0-8.61,4,2.2,2.2,0,0,0-1,.9c-.43,1,.72,1.93,1.66,2.49a23.55,23.55,0,0,1,9.81,11.6c.32.81.55,1.86-.09,2.45-.79.74-2.06.08-2.92-.58L43.06,22c-2.94-2.28-7.22-6.09-10-3.64-4.71,4.13-8.1,10.75-6,16.65,1.45,4,5.14,6.83,9,8.67a52.66,52.66,0,0,0,15,4.13c22.49,3.32,46.65-.44,65.1-13.73a33.73,33.73,0,0,0,8.72-8.54,16.43,16.43,0,0,0,2.77-11.66,14.17,14.17,0,0,0-6.81-9.17,1,1,0,0,0-.37-.14c-.2,0-.51.26-.43.44a12.19,12.19,0,0,1,.85,3.67c0,.56-.1,1.31-.66,1.39a.94.94,0,0,1-.66-.22,4.92,4.92,0,0,1-1.24-1.7c-1.44-2.59-3.17-5.52-6-6.24A53,53,0,0,0,101.56.39c-.84,0-2-.07-2.12.75a1.62,1.62,0,0,0,.38,1.15,57.3,57.3,0,0,1,3.73,7c.61,1.34,1,3.22-.17,4.07-3-.19-5.45-2.62-7.31-5.06S92.44,3.1,89.64,1.86A14.13,14.13,0,0,0,84.16,1a74.05,74.05,0,0,0-12.27.81c-.73.11-1.65.43-1.65,1.17,0,.48.4.85.78,1.14l7.1,5.62" transform="translate(0 0)"/><path d="M36.2,17.69a4,4,0,0,1,1.37-1.55,11.15,11.15,0,0,1,1.78-1,23.55,23.55,0,0,1,3.84-1.24,20.49,20.49,0,0,1-3.53,1.91A19.93,19.93,0,0,0,36.2,17.69Z" transform="translate(0 0)"/><path d="M60.53,6.18a15.91,15.91,0,0,1,4.76-1.72A27.84,27.84,0,0,0,70.06,3a10,10,0,0,1-4.59,2.17C63.82,5.57,62.19,5.81,60.53,6.18Z" transform="translate(0 0)"/><path d="M90.6,2a5.09,5.09,0,0,1,2.12-.68,12.66,12.66,0,0,1,2.22,0,22,22,0,0,0,4.29.14,5.19,5.19,0,0,1-2.14.62,14.81,14.81,0,0,1-2.21,0A18.56,18.56,0,0,0,90.6,2Z" transform="translate(0 0)"/><path d="M115.4,3.54a4.06,4.06,0,0,1,2.51,0c.82.3,1.37.77,2.17,1a2.08,2.08,0,0,1-1.28.05,11.7,11.7,0,0,1-1.14-.38C117,4,116.19,3.89,115.4,3.54Z" transform="translate(0 0)"/><path d="M39.62,17.73l2-1.19c.65-.38,1.28-.8,1.94-1.18a10.62,10.62,0,0,1-1.81,1.39A9.89,9.89,0,0,1,39.62,17.73Z" transform="translate(0 0)"/><path d="M41.59,18.62a7.27,7.27,0,0,1,1.73-1.54,7.11,7.11,0,0,1,2.11-.93c-.68.37-1.35.72-2,1.14S42.21,18.16,41.59,18.62Z" transform="translate(0 0)"/><path d="M42.62,19.68a10.07,10.07,0,0,1,2.09-1.52,9.75,9.75,0,0,1,2.41-.95c-.77.39-1.55.74-2.29,1.17S43.36,19.23,42.62,19.68Z" transform="translate(0 0)"/><path d="M43.71,20.72a2.17,2.17,0,0,1,.91-.89c.36-.23.74-.42,1.12-.62a13.11,13.11,0,0,1,2.38-.9c-.76.4-1.52.74-2.27,1.13L44.71,20A2.9,2.9,0,0,0,43.71,20.72Z" transform="translate(0 0)"/><path d="M44.82,21.54a8.26,8.26,0,0,1,2-1.36,8,8,0,0,1,2.33-.74c-.75.31-1.5.6-2.23,1S45.54,21.14,44.82,21.54Z" transform="translate(0 0)"/><path d="M46.11,22.59a5.54,5.54,0,0,1,3.75-2A13.06,13.06,0,0,0,46.11,22.59Z" transform="translate(0 0)"/><path d="M47,23.15a7.4,7.4,0,0,1,1.78-1.09,7.51,7.51,0,0,1,2-.57c-.65.28-1.29.51-1.92.8S47.66,22.86,47,23.15Z" transform="translate(0 0)"/><path d="M47.92,24.29a6.19,6.19,0,0,1,1.72-1.18,6.51,6.51,0,0,1,2-.54c-.65.25-1.29.47-1.91.77S48.53,24,47.92,24.29Z" transform="translate(0 0)"/><path d="M48.86,25.32a5.81,5.81,0,0,1,1.52-1,6.15,6.15,0,0,1,1.73-.51c-.54.26-1.09.48-1.63.74S49.42,25.08,48.86,25.32Z" transform="translate(0 0)"/><path d="M50,26.13a4.45,4.45,0,0,1,1.25-.89,4.38,4.38,0,0,1,1.47-.43c-.46.24-.92.42-1.36.65S50.5,25.92,50,26.13Z" transform="translate(0 0)"/><path d="M50.75,27.05A4.48,4.48,0,0,1,52,26.18a4.61,4.61,0,0,1,1.46-.41Z" transform="translate(0 0)"/><path d="M51.64,28.35a3.17,3.17,0,0,1,2.54-1.11A13.31,13.31,0,0,0,51.64,28.35Z" transform="translate(0 0)"/><path d="M65.43,6.78c.95-.45,1.94-.82,2.92-1.18s2-.7,3-.95c-1,.45-1.94.81-2.92,1.18S66.46,6.52,65.43,6.78Z" transform="translate(0 0)"/><path d="M67.24,7.87A12.76,12.76,0,0,1,70,6.5a12.38,12.38,0,0,1,3-.7c-1,.3-2,.57-2.9.93S68.18,7.47,67.24,7.87Z" transform="translate(0 0)"/><path d="M68.51,8.64a10.53,10.53,0,0,1,5-1.61c-.85.23-1.69.44-2.52.73S69.33,8.34,68.51,8.64Z" transform="translate(0 0)"/><path d="M69,10.22A9.62,9.62,0,0,1,71.56,8.7,9.81,9.81,0,0,1,74.43,8a23.86,23.86,0,0,0-2.78.93A25.57,25.57,0,0,0,69,10.22Z" transform="translate(0 0)"/><path d="M70.2,10.62a10.94,10.94,0,0,1,2.87-1.46,10.7,10.7,0,0,1,3.16-.59,24.48,24.48,0,0,0-3.08.82A25.18,25.18,0,0,0,70.2,10.62Z" transform="translate(0 0)"/><path d="M71.68,11.48A13.67,13.67,0,0,1,74.6,10a13,13,0,0,1,3.18-.7c-1,.29-2.08.57-3.09.94S72.68,11.05,71.68,11.48Z" transform="translate(0 0)"/><path d="M73.34,12.14a9.08,9.08,0,0,1,2.44-1.25,9,9,0,0,1,2.71-.47,24.77,24.77,0,0,0-2.63.71A23.65,23.65,0,0,0,73.34,12.14Z" transform="translate(0 0)"/><path d="M74.09,13.17a12.21,12.21,0,0,1,2.71-1.34,11.86,11.86,0,0,1,3-.64c-1,.28-1.93.54-2.87.88S75,12.78,74.09,13.17Z" transform="translate(0 0)"/><path d="M75.4,14.17A10.33,10.33,0,0,1,78,13a10.69,10.69,0,0,1,2.8-.49c-.92.22-1.83.43-2.73.73S76.29,13.82,75.4,14.17Z" transform="translate(0 0)"/><path d="M76.74,15a8.66,8.66,0,0,1,2.48-1.26A8.84,8.84,0,0,1,82,13.31a21.9,21.9,0,0,0-2.68.68A22.22,22.22,0,0,0,76.74,15Z" transform="translate(0 0)"/><path d="M78.82,15.61A6.46,6.46,0,0,1,83,14.37a19.16,19.16,0,0,0-2.15.49A17.69,17.69,0,0,0,78.82,15.61Z" transform="translate(0 0)"/><path d="M80,16.77a6.48,6.48,0,0,1,1.74-.88,6.26,6.26,0,0,1,1.92-.35c-.62.2-1.24.37-1.84.58S80.61,16.56,80,16.77Z" transform="translate(0 0)"/><path d="M81.15,17.57a4.63,4.63,0,0,1,1.43-.82,4.48,4.48,0,0,1,1.62-.27c-.52.17-1,.31-1.54.5S81.67,17.37,81.15,17.57Z" transform="translate(0 0)"/><path d="M81.81,18.49a4.19,4.19,0,0,1,2.81-1c-.48.18-1,.31-1.42.49S82.29,18.31,81.81,18.49Z" transform="translate(0 0)"/><path d="M82.64,19.54a3.35,3.35,0,0,1,1.06-.63,3.17,3.17,0,0,1,1.22-.21c-.38.18-.76.29-1.13.44S83,19.43,82.64,19.54Z" transform="translate(0 0)"/><path d="M94.33,3.79a12.13,12.13,0,0,1,2.79-1,11.41,11.41,0,0,1,3-.3c-1,.16-2,.31-2.9.54S95.28,3.51,94.33,3.79Z" transform="translate(0 0)"/><path d="M95.45,4.64a7.93,7.93,0,0,1,2.28-.75,8.05,8.05,0,0,1,2.4,0c-.79.08-1.58.14-2.35.28A23.58,23.58,0,0,0,95.45,4.64Z" transform="translate(0 0)"/><path d="M95.62,5.71a2.6,2.6,0,0,1,1.2-.49c.42-.09.84-.15,1.27-.22a12.37,12.37,0,0,1,2.58-.06l-2.55.31-1.27.16A3.47,3.47,0,0,0,95.62,5.71Z" transform="translate(0 0)"/><path d="M96.59,6.52A8.09,8.09,0,0,1,98.87,6a8,8,0,0,1,2.34.15c-.78,0-1.55,0-2.32.1S97.36,6.43,96.59,6.52Z" transform="translate(0 0)"/><path d="M97,7.79a8.3,8.3,0,0,1,2.54-.67,7.94,7.94,0,0,1,2.62.15,22.17,22.17,0,0,0-2.59.1A20.54,20.54,0,0,0,97,7.79Z" transform="translate(0 0)"/><path d="M98.07,9a7.74,7.74,0,0,1,4.61-.69c-.79.07-1.56.11-2.32.24S98.84,8.82,98.07,9Z" transform="translate(0 0)"/><path d="M99.07,10.19a5.91,5.91,0,0,1,4.2-.61A16.15,16.15,0,0,0,99.07,10.19Z" transform="translate(0 0)"/><path d="M100.53,11.21a4,4,0,0,1,3.15-.64A15.45,15.45,0,0,0,100.53,11.21Z" transform="translate(0 0)"/><path d="M101.47,12.23a2.89,2.89,0,0,1,1-.53,2.72,2.72,0,0,1,1.17,0c-.38.11-.75.18-1.11.29S101.86,12.15,101.47,12.23Z" transform="translate(0 0)"/><path d="M102.34,13.08a1.28,1.28,0,0,1,.6-.38,1.32,1.32,0,0,1,.71,0,4.68,4.68,0,0,1-.64.25A4.4,4.4,0,0,1,102.34,13.08Z" transform="translate(0 0)"/><path d="M48,11.19a31.79,31.79,0,0,1,4.42-2.37,12.39,12.39,0,0,1,4.91-1.07,6.88,6.88,0,0,1,2.49.51,15.2,15.2,0,0,1,2.22,1.18c1.44.85,2.86,1.73,4.28,2.63Q64.13,10.86,62,9.58a15,15,0,0,0-2.22-1.13A6.86,6.86,0,0,0,57.34,8,12.07,12.07,0,0,0,52.5,9,44.47,44.47,0,0,0,48,11.19Z" transform="translate(0 0)"/><path d="M45.54,13.67c.81.49,1.62.95,2.4,1.49A17.16,17.16,0,0,1,50.12,17a16.24,16.24,0,0,1,3.28,4.57,21.68,21.68,0,0,0-3.46-4.39,19.21,19.21,0,0,0-2.11-1.83Z" transform="translate(0 0)"/><path d="M47.14,13.37a3.24,3.24,0,0,1,2.35,1.27A23.12,23.12,0,0,0,47.14,13.37Z" transform="translate(0 0)"/><path d="M33.09,20.77A18,18,0,0,0,29,28.41,12.39,12.39,0,0,1,33.09,20.77Z" transform="translate(0 0)"/><path d="M32.25,24.3a13.79,13.79,0,0,0-2.06,3.95A5.91,5.91,0,0,1,32.25,24.3Z" transform="translate(0 0)"/><path d="M32.33,26.71A8.73,8.73,0,0,0,31,30,3.86,3.86,0,0,1,32.33,26.71Z" transform="translate(0 0)"/><path d="M33.41,27.74A8.75,8.75,0,0,0,32,31.18,4.08,4.08,0,0,1,33.41,27.74Z" transform="translate(0 0)"/><path d="M34.39,29c-.19.53-.39,1-.54,1.54s-.28,1-.43,1.57a4.48,4.48,0,0,1,1-3.11Z" transform="translate(0 0)"/><path d="M35.6,30.1a10.43,10.43,0,0,0-.66,2.64A2.89,2.89,0,0,1,35.6,30.1Z" transform="translate(0 0)"/><path d="M28.78,29.28a14.4,14.4,0,0,0-.27,7.54A9.81,9.81,0,0,1,28.78,29.28Z" transform="translate(0 0)"/><path d="M30,31.53a37.7,37.7,0,0,0-.43,3.78A8.86,8.86,0,0,0,30.13,39a6.83,6.83,0,0,1-.82-3.72A16,16,0,0,1,30,31.53Z" transform="translate(0 0)"/><path d="M31.36,33.26a15,15,0,0,0-.18,7A9.54,9.54,0,0,1,31.36,33.26Z" transform="translate(0 0)"/><path d="M32.68,34a23.36,23.36,0,0,0,.42,6.81,11.85,11.85,0,0,1-.71-3.38A11.61,11.61,0,0,1,32.68,34Z" transform="translate(0 0)"/><path d="M34.3,35.35a28.55,28.55,0,0,0-.19,3.46,26.72,26.72,0,0,0,.27,3.45,12.68,12.68,0,0,1-.08-6.91Z" transform="translate(0 0)"/><path d="M36,35.62a17.57,17.57,0,0,0-.34,3.68c0,1.24.1,2.47.11,3.72a23.09,23.09,0,0,1-.36-3.72A10.67,10.67,0,0,1,36,35.62Z" transform="translate(0 0)"/><path d="M37.61,37a22.53,22.53,0,0,0-.21,6.35A10.72,10.72,0,0,1,37,40.11,10.57,10.57,0,0,1,37.61,37Z" transform="translate(0 0)"/><path d="M39.14,37.88c-.13,1-.26,2-.29,3.08s0,2.06,0,3.1A11.55,11.55,0,0,1,38.6,41,11.85,11.85,0,0,1,39.14,37.88Z" transform="translate(0 0)"/><path d="M40.84,38.54c-.16,1.07-.31,2.12-.37,3.19s-.08,2.13-.07,3.21a12.48,12.48,0,0,1-.18-3.23A12.72,12.72,0,0,1,40.84,38.54Z" transform="translate(0 0)"/><path d="M42.29,39.39c-.12,1-.26,2-.32,3.08s-.1,2.05-.13,3.09a14,14,0,0,1-.12-3.11A13.77,13.77,0,0,1,42.29,39.39Z" transform="translate(0 0)"/><path d="M43.62,40.3a19.88,19.88,0,0,0-.28,2.64,21.48,21.48,0,0,0,.06,2.66,8.57,8.57,0,0,1-.31-2.67A8.16,8.16,0,0,1,43.62,40.3Z" transform="translate(0 0)"/><path d="M45.39,40.51c-.11.91-.23,1.81-.27,2.72S45.06,45,45.05,46a11,11,0,0,1-.18-2.75A10.41,10.41,0,0,1,45.39,40.51Z" transform="translate(0 0)"/><path d="M47.08,40.85a17.51,17.51,0,0,0-.28,5.45A8.17,8.17,0,0,1,47.08,40.85Z" transform="translate(0 0)"/><path d="M48.75,41.21a25.6,25.6,0,0,1-.45,5,23.68,23.68,0,0,1,.1-2.53A24.22,24.22,0,0,1,48.75,41.21Z" transform="translate(0 0)"/><path d="M50.09,41.15a12.08,12.08,0,0,1,.13,2.4,11.94,11.94,0,0,1-.31,2.38c0-.8.05-1.59.07-2.39S50,42,50.09,41.15Z" transform="translate(0 0)"/><path d="M51.63,41.27a14.18,14.18,0,0,1-.19,5.14c0-.86.07-1.71.08-2.57S51.57,42.13,51.63,41.27Z" transform="translate(0 0)"/><path d="M53.34,41.4a15,15,0,0,1,.09,2.84A15.63,15.63,0,0,1,53,47.05Z" transform="translate(0 0)"/><path d="M55,41.52a11.14,11.14,0,0,1,.12,2.58,11,11,0,0,1-.43,2.55c.05-.86.15-1.71.19-2.56S55,42.38,55,41.52Z" transform="translate(0 0)"/><path d="M56.63,41.11a15.21,15.21,0,0,1,.3,3.15,15,15,0,0,1-.37,3.14c0-1,.12-2.09.12-3.14S56.65,42.17,56.63,41.11Z" transform="translate(0 0)"/><path d="M58.1,39.56a26.16,26.16,0,0,1,.45,4.32,11.3,11.3,0,0,1-.71,4.28,16.21,16.21,0,0,0,.46-4.27C58.31,42.45,58.16,41,58.1,39.56Z" transform="translate(0 0)"/><path d="M60.12,39.89a19.11,19.11,0,0,1,.15,3.78,18,18,0,0,1-.58,3.73c.13-1.25.28-2.49.33-3.75S60.11,41.15,60.12,39.89Z" transform="translate(0 0)"/><path d="M61.45,39.8c.11.65.23,1.3.28,2a14.69,14.69,0,0,1,0,2A14.31,14.31,0,0,1,61,47.64a27.15,27.15,0,0,0,.48-3.9A34.57,34.57,0,0,0,61.45,39.8Z" transform="translate(0 0)"/><path d="M63.3,39.67A18.28,18.28,0,0,1,63,47.73c.17-1.35.32-2.68.36-4S63.36,41,63.3,39.67Z" transform="translate(0 0)"/><path d="M65.2,40a24.39,24.39,0,0,1,.19,4.27,23.25,23.25,0,0,1-.57,4.24c.13-1.42.27-2.83.32-4.25S65.2,41.39,65.2,40Z" transform="translate(0 0)"/><path d="M66.83,38.68a21.56,21.56,0,0,1-.09,9.72,38.87,38.87,0,0,0,.09-9.72Z" transform="translate(0 0)"/><path d="M68.52,38.63a21.32,21.32,0,0,1,.31,4.65,21.69,21.69,0,0,1-.71,4.61,44.88,44.88,0,0,0,.46-4.62A42.29,42.29,0,0,0,68.52,38.63Z" transform="translate(0 0)"/><path d="M69.86,39.17a19.17,19.17,0,0,1,.22,4.54,18.17,18.17,0,0,1-.87,4.46,34,34,0,0,0,.62-4.48A35.86,35.86,0,0,0,69.86,39.17Z" transform="translate(0 0)"/><path d="M71.11,39.18a16.51,16.51,0,0,1,.44,4.65,16.27,16.27,0,0,1-.86,4.59,27.48,27.48,0,0,0,.61-4.6A26.7,26.7,0,0,0,71.11,39.18Z" transform="translate(0 0)"/><path d="M72.72,38.25A19.08,19.08,0,0,1,73.29,43a18.56,18.56,0,0,1-.64,4.75A33,33,0,0,0,73,43,34.5,34.5,0,0,0,72.72,38.25Z" transform="translate(0 0)"/><path d="M74.24,38.35a23.7,23.7,0,0,1,.15,9.54c.11-1.59.2-3.18.16-4.77A47.54,47.54,0,0,0,74.24,38.35Z" transform="translate(0 0)"/><path d="M76.13,38.35a25.26,25.26,0,0,1,.28,4.76,24.16,24.16,0,0,1-.65,4.72c.19-1.58.35-3.15.4-4.73S76.19,39.93,76.13,38.35Z" transform="translate(0 0)"/><path d="M77.66,37.79a25.85,25.85,0,0,1,.2,5.05,25.52,25.52,0,0,1-.78,5c.24-1.67.45-3.33.53-5S77.7,39.47,77.66,37.79Z" transform="translate(0 0)"/><path d="M79.15,37.46A17.22,17.22,0,0,1,79.61,42a17.62,17.62,0,0,1-.72,4.5,30.17,30.17,0,0,0,.26-9Z" transform="translate(0 0)"/><path d="M80.78,37.06a15.5,15.5,0,0,1-.43,9.75A22.3,22.3,0,0,0,80.78,37.06Z" transform="translate(0 0)"/><path d="M102.31,3.28A4.83,4.83,0,0,1,103.94,5a10,10,0,0,1,.91,2.22A15.87,15.87,0,0,0,102.31,3.28Z" transform="translate(0 0)"/><path d="M74.13,3.51c-.18.24,0,.53.18.72s.36.4.56.59a11.39,11.39,0,0,0,1.25,1c.88.64,1.81,1.21,2.73,1.81a34.42,34.42,0,0,1,5.09,4.15,58.62,58.62,0,0,0-5.23-3.94C77.81,7.27,76.87,6.7,76,6A10.7,10.7,0,0,1,74.79,4.9a8.18,8.18,0,0,1-.53-.64C74.11,4.06,73.93,3.74,74.13,3.51Z" transform="translate(0 0)"/><path d="M79.63,7c.81.64,1.68,1.17,2.54,1.73a8.22,8.22,0,0,1,2.28,2.08A14.61,14.61,0,0,0,82,9,12.08,12.08,0,0,1,79.63,7Z" transform="translate(0 0)"/><path d="M80.63,2.6a8.2,8.2,0,0,1,2.14-.36,7.86,7.86,0,0,1,2.16.18c-.73,0-1.44,0-2.15.07S81.36,2.58,80.63,2.6Z" transform="translate(0 0)"/><path d="M87.13,2.78a12.1,12.1,0,0,1,3.06,2.06A14.59,14.59,0,0,1,91.44,6.2a3.94,3.94,0,0,1,.91,1.6,4.61,4.61,0,0,0-1-1.47A15.73,15.73,0,0,0,90,5,21.73,21.73,0,0,0,87.13,2.78Z" transform="translate(0 0)"/><path d="M75.66,30.19a16.43,16.43,0,0,1,1.1,3.28,15.91,15.91,0,0,1,.4,3.43c-.2-1.13-.38-2.26-.64-3.38S76,31.3,75.66,30.19Z" transform="translate(0 0)"/><path d="M77.15,29.37a15.85,15.85,0,0,1,1.22,3.29,15.6,15.6,0,0,1,.48,3.47c-.22-1.15-.43-2.29-.72-3.41S77.5,30.49,77.15,29.37Z" transform="translate(0 0)"/><path d="M79,30.2A11.69,11.69,0,0,1,80,33a11.57,11.57,0,0,1,.32,3c-.17-1-.32-2-.57-2.93S79.28,31.16,79,30.2Z" transform="translate(0 0)"/><path d="M80.86,32.25a6.85,6.85,0,0,1,.45,1.46,6.36,6.36,0,0,1,.09,1.51c-.16-.49-.23-1-.34-1.47A14.27,14.27,0,0,1,80.86,32.25Z" transform="translate(0 0)"/><path d="M75.42,33.78a4,4,0,0,1,.49,2.67c-.11-.46-.16-.9-.25-1.34S75.48,34.24,75.42,33.78Z" transform="translate(0 0)"/><path d="M74.4,34.46a2.46,2.46,0,0,1,.54,2.4A9.83,9.83,0,0,0,74.4,34.46Z" transform="translate(0 0)"/><path d="M73.24,34.78a2.91,2.91,0,0,1,.38,1,3,3,0,0,1,0,1.11,10.62,10.62,0,0,1-.21-1.07C73.33,35.5,73.25,35.15,73.24,34.78Z" transform="translate(0 0)"/><path d="M82.05,35.69a21.83,21.83,0,0,1,.41,11.6,31.72,31.72,0,0,0-.41-11.6Z" transform="translate(0 0)"/><path d="M83.6,35a34.64,34.64,0,0,1,.78,5.82,35.93,35.93,0,0,1-.17,5.87c0-2,0-3.91-.08-5.85S83.84,36.93,83.6,35Z" transform="translate(0 0)"/><path d="M85.3,35.19A21.22,21.22,0,0,1,86,46a32.83,32.83,0,0,0,.08-5.43A31.54,31.54,0,0,0,85.3,35.19Z" transform="translate(0 0)"/><path d="M86.88,33.5A22.56,22.56,0,0,1,88,39.27a23,23,0,0,1-.4,5.86,34.66,34.66,0,0,0,.15-5.85A34.28,34.28,0,0,0,86.88,33.5Z" transform="translate(0 0)"/><path d="M88.52,33.18a26.88,26.88,0,0,1,1.1,6.22,27.21,27.21,0,0,1-.35,6.31,42.64,42.64,0,0,0,.1-6.29A41.23,41.23,0,0,0,88.52,33.18Z" transform="translate(0 0)"/><path d="M90.16,32.32a27.11,27.11,0,0,1,1.33,6.56,26.69,26.69,0,0,1-.31,6.68,38,38,0,0,0,.06-6.66A39.78,39.78,0,0,0,90.16,32.32Z" transform="translate(0 0)"/><path d="M92,32.28a26.45,26.45,0,0,1,1.17,6.24,25.88,25.88,0,0,1-.31,6.34A39.93,39.93,0,0,0,92,32.28Z" transform="translate(0 0)"/><path d="M93.52,31.92a35.06,35.06,0,0,1,1.15,6.52,34.15,34.15,0,0,1-.08,6.63,58.3,58.3,0,0,0-.17-6.61A60.45,60.45,0,0,0,93.52,31.92Z" transform="translate(0 0)"/><path d="M95.05,31.63a33.65,33.65,0,0,1,1.12,11.76c0-2-.08-4-.29-5.91S95.4,33.57,95.05,31.63Z" transform="translate(0 0)"/><path d="M96.86,31.23a32.2,32.2,0,0,1,.91,12.2,55.8,55.8,0,0,0-.91-12.2Z" transform="translate(0 0)"/><path d="M98.4,30.15a30.35,30.35,0,0,1,.9,12.48,47.81,47.81,0,0,0-.9-12.48Z" transform="translate(0 0)"/><path d="M99.93,29.92a23.83,23.83,0,0,1,.82,11.61,36.16,36.16,0,0,0-.82-11.61Z" transform="translate(0 0)"/><path d="M101.54,29.38a25.4,25.4,0,0,1,1.18,6.12,25,25,0,0,1-.33,6.23,37.9,37.9,0,0,0,.08-6.21A38.75,38.75,0,0,0,101.54,29.38Z" transform="translate(0 0)"/><path d="M102.76,28.66a23.78,23.78,0,0,1,1.44,6.25,23.35,23.35,0,0,1-.26,6.41,34.1,34.1,0,0,0,0-6.39A33.51,33.51,0,0,0,102.76,28.66Z" transform="translate(0 0)"/><path d="M104.64,28.26a20.76,20.76,0,0,1,.85,11.29,30.16,30.16,0,0,0-.85-11.29Z" transform="translate(0 0)"/><path d="M106.4,28.2a19.52,19.52,0,0,1,1,5.31,20,20,0,0,1-.41,5.4,31.22,31.22,0,0,0,.16-5.38A30.06,30.06,0,0,0,106.4,28.2Z" transform="translate(0 0)"/><path d="M107.72,27.16a21.43,21.43,0,0,1,1.1,5.39,22,22,0,0,1-.3,5.49,35.7,35.7,0,0,0,0-5.47A34,34,0,0,0,107.72,27.16Z" transform="translate(0 0)"/><path d="M109,26a17.43,17.43,0,0,1,.86,10.88A24.16,24.16,0,0,0,109,26Z" transform="translate(0 0)"/><path d="M110.82,26a22.5,22.5,0,0,1,.86,10.72A36.24,36.24,0,0,0,110.82,26Z" transform="translate(0 0)"/><path d="M112.21,24.91a18.23,18.23,0,0,1,1.26,11A25.31,25.31,0,0,0,112.21,24.91Z" transform="translate(0 0)"/><path d="M114,24a24.54,24.54,0,0,1,1.08,10.58,43,43,0,0,0-.21-5.33A40.77,40.77,0,0,0,114,24Z" transform="translate(0 0)"/><path d="M115.42,23.34a17,17,0,0,1,1.17,4.71,16.84,16.84,0,0,1-.2,4.86,26.85,26.85,0,0,0,0-4.83A27.56,27.56,0,0,0,115.42,23.34Z" transform="translate(0 0)"/><path d="M116.68,22.49a12,12,0,0,1,1.68,8.63A17,17,0,0,0,116.68,22.49Z" transform="translate(0 0)"/><path d="M118.3,22.28a13.27,13.27,0,0,1,1.51,8A21.69,21.69,0,0,0,118.3,22.28Z" transform="translate(0 0)"/><path d="M119.76,20.94a13.08,13.08,0,0,1,1.51,7.53,23.08,23.08,0,0,0-1.51-7.53Z" transform="translate(0 0)"/><path d="M120.78,20.13a7.14,7.14,0,0,1,1.83,5.8A11,11,0,0,0,120.78,20.13Z" transform="translate(0 0)"/><path d="M121.94,18.81a5.56,5.56,0,0,1,1.82,5.6A7.54,7.54,0,0,0,121.94,18.81Z" transform="translate(0 0)"/><path d="M123,17.63a2.57,2.57,0,0,1,.89,1c.22.38.42.78.61,1.18a7,7,0,0,1,.45,1.26,4,4,0,0,1,.11,1.33,8.3,8.3,0,0,0-.78-2.49l-.56-1.19A3.3,3.3,0,0,0,123,17.63Z" transform="translate(0 0)"/><path d="M124.06,16.48a3.62,3.62,0,0,1,2,3.7A5.49,5.49,0,0,0,124.06,16.48Z" transform="translate(0 0)"/><path d="M125.05,15a2.49,2.49,0,0,1,1.7,2.79A3.88,3.88,0,0,0,125.05,15Z" transform="translate(0 0)"/><path d="M111.6,21.38a3.36,3.36,0,0,1,.46,1.26A3.31,3.31,0,0,1,112,24c-.08-.44-.1-.87-.18-1.29S111.66,21.83,111.6,21.38Z" transform="translate(0 0)"/><path d="M112.69,20.6a2.42,2.42,0,0,1,.63,2.71A5.11,5.11,0,0,0,112.69,20.6Z" transform="translate(0 0)"/><path d="M114,19.9a2.41,2.41,0,0,1,.71,2.3A9.73,9.73,0,0,0,114,19.9Z" transform="translate(0 0)"/><path d="M115.09,16.55c.3.85.81,1.61,1,2.51a5.41,5.41,0,0,1,0,2.71,8.72,8.72,0,0,0-.25-2.65A23.29,23.29,0,0,1,115.09,16.55Z" transform="translate(0 0)"/><path d="M116.85,17.87a3.65,3.65,0,0,1,.77,2.88A17,17,0,0,0,116.85,17.87Z" transform="translate(0 0)"/><path d="M116.94,9.39a10.39,10.39,0,0,1-2.1-2.78,5.58,5.58,0,0,0-2.37-2.39l-3.29-1.14A6.12,6.12,0,0,0,105.76,3a5.71,5.71,0,0,1,3.47-.1c1.12.34,2.22.73,3.33,1.09A5.61,5.61,0,0,1,115,6.51,12.55,12.55,0,0,0,116.94,9.39Z" transform="translate(0 0)"/><path d="M105.4,8.5a2.94,2.94,0,0,1,.46,1,3,3,0,0,1,.1,1.08,10.16,10.16,0,0,1-.34-1A8.71,8.71,0,0,1,105.4,8.5Z" transform="translate(0 0)"/><path d="M117,5.11a4.32,4.32,0,0,1,1.68,0,4.23,4.23,0,0,1,1.57.6c-.55-.12-1.07-.27-1.61-.36S117.57,5.19,117,5.11Z" transform="translate(0 0)"/><path d="M117.64,6A3.82,3.82,0,0,1,119,6a4.09,4.09,0,0,1,1.31.5c-.47-.06-.91-.18-1.35-.25S118.1,6.13,117.64,6Z" transform="translate(0 0)"/><path d="M118.11,7.25a2.81,2.81,0,0,1,2.37.43C119.67,7.51,118.93,7.37,118.11,7.25Z" transform="translate(0 0)"/><path d="M118.91,8.52a1.1,1.1,0,0,1,1.5.18A5.81,5.81,0,0,0,118.91,8.52Z" transform="translate(0 0)"/><path d="M25.5,95.79a2.2,2.2,0,0,1-2.4,2.42H21.92v3.08H20.63V93.48h2.44A2.18,2.18,0,0,1,25.5,95.79Zm-1.38,0c0-.89-.43-1.35-1.22-1.35h-1v2.8h1C23.68,97.24,24.12,96.75,24.12,95.79Z" transform="translate(0 0)"/><path d="M31.58,99.22H29.26l-.54,2.07H27.41l2.24-7.81h1.52l2.25,7.81h-1.3ZM29.33,93l-.71-.19c.08-.71.48-1.13,1.11-1.13s.93.57,1.33.57c.23,0,.36-.17.43-.51l.72.18c-.09.71-.49,1.13-1.12,1.13s-.92-.56-1.33-.56C29.53,92.52,29.4,92.68,29.33,93Zm2,5.21-.69-2.64c-.08-.32-.14-.61-.2-1h0c0,.38-.12.67-.19,1l-.69,2.64Z" transform="translate(0 0)"/><path d="M40.84,100.27v1H36.58V93.48h4.18v1H37.87v2.27h2.72v1H37.87v2.48Z" transform="translate(0 0)"/><path d="M43.59,99l1.23-.38c.14,1.23.61,1.79,1.56,1.79a1,1,0,0,0,1.09-1.15,1.17,1.17,0,0,0-1-1.28l-1-.32a2.19,2.19,0,0,1-1.62-2.22,2.16,2.16,0,0,1,2.42-2.17,2.25,2.25,0,0,1,2.51,2.24l-1.16.4c-.14-1.12-.59-1.64-1.38-1.64a1,1,0,0,0-1.1,1.06,1.22,1.22,0,0,0,1,1.21l1,.35a2.18,2.18,0,0,1,1.65,2.28,2.2,2.2,0,0,1-2.44,2.29A2.5,2.5,0,0,1,43.59,99Z" transform="translate(0 0)"/><path d="M59.85,99.22H57.53L57,101.29H55.68l2.24-7.81h1.52l2.24,7.81H60.39Zm-.27-1-.69-2.64c-.08-.32-.14-.61-.2-1h0c-.05.38-.12.67-.19,1l-.69,2.64Z" transform="translate(0 0)"/><path d="M67.17,98.07h-1v3.22H64.85V93.48h2.47c1.76,0,2.43.92,2.43,2.28a2,2,0,0,1-1.31,2.09l1.49,3.44h-1.4Zm-1-.91h1c.86,0,1.2-.54,1.2-1.4s-.33-1.34-1.21-1.34h-1Z" transform="translate(0 0)"/><path d="M77.45,94.57h-2v6.72H74.21V94.57H72.26V93.48h5.19Z" transform="translate(0 0)"/><path d="M84.76,100.27v1H80.51V93.48h4.18v1h-2.9v2.27h2.72v1H81.79v2.48Z" transform="translate(0 0)"/><path d="M87.51,99l1.23-.38c.15,1.23.61,1.79,1.57,1.79a1,1,0,0,0,1.09-1.15,1.18,1.18,0,0,0-1-1.28l-1-.32a2.19,2.19,0,0,1-1.61-2.22,2.16,2.16,0,0,1,2.42-2.17,2.25,2.25,0,0,1,2.5,2.24l-1.16.4c-.13-1.12-.59-1.64-1.38-1.64a1,1,0,0,0-1.1,1.06,1.22,1.22,0,0,0,1,1.21l1,.35a2.17,2.17,0,0,1,1.64,2.28,2.2,2.2,0,0,1-2.44,2.29A2.5,2.5,0,0,1,87.51,99Z" transform="translate(0 0)"/><path d="M99.49,99.22H97.17l-.54,2.07H95.32l2.25-7.81h1.51l2.25,7.81H100Zm-.26-1-.7-2.64c-.07-.32-.14-.61-.19-1h0c0,.38-.12.67-.18,1l-.7,2.64Z" transform="translate(0 0)"/><path d="M104.49,93.48H106l2.4,4.83a5.2,5.2,0,0,1,.38,1.21h0c0-.48,0-1,0-1.52V93.48h1.2v7.81h-1.36l-2.47-5a4.87,4.87,0,0,1-.41-1.22h0c0,.42,0,.89,0,1.41v4.81h-1.2Z" transform="translate(0 0)"/><path d="M117.23,99.22h-2.32l-.54,2.07h-1.31l2.25-7.81h1.52l2.24,7.81h-1.3Zm-.26-1-.69-2.64a8.23,8.23,0,0,1-.2-1h0c-.06.38-.12.67-.19,1l-.69,2.64Z" transform="translate(0 0)"/><path d="M122.24,101.29V93.48h1.29v7.81Z" transform="translate(0 0)"/><path d="M126.74,99l1.23-.38c.14,1.23.6,1.79,1.56,1.79a1,1,0,0,0,1.09-1.15,1.17,1.17,0,0,0-1-1.28l-1-.32A2.19,2.19,0,0,1,127,95.46a2.16,2.16,0,0,1,2.42-2.17,2.25,2.25,0,0,1,2.51,2.24l-1.17.4c-.13-1.12-.58-1.64-1.37-1.64a1,1,0,0,0-1.1,1.06,1.22,1.22,0,0,0,1,1.21l1,.35a2.18,2.18,0,0,1,1.65,2.28,2.2,2.2,0,0,1-2.44,2.29A2.5,2.5,0,0,1,126.74,99Z" transform="translate(0 0)"/><rect class="cls-2" x="55.05" y="48.29" width="10" height="10"/></svg>