<?xml version="1.0" encoding="utf-8"?>
<!-- Generator: Adobe Illustrator 22.0.1, SVG Export Plug-In . SVG Version: 6.00 Build 0)  -->
<svg version="1.1" id="Layer_1" xmlns="http://www.w3.org/2000/svg" xmlns:xlink="http://www.w3.org/1999/xlink" x="0px" y="0px"
	 viewBox="0 0 154.3 103.9" style="enable-background:new 0 0 154.3 103.9;" xml:space="preserve">
<style type="text/css">
	.st0{fill:#FFFFFF;}
	.st1{fill:none;stroke:#FFFFFF;stroke-width:0.75;stroke-miterlimit:10;}
	.st2{fill:none;}
</style>
<g>
	<path class="st0" d="M16.2,76c0,2.6-1.7,5-6.3,5H0V63h9.6c4.5,0,6.1,2.3,6.1,4.7c0,1.8-1.1,3.5-3.3,4C14.9,72,16.2,73.7,16.2,76z
		 M3.5,65.6v5H9c2.6,0,3.2-1.3,3.2-2.5c0-1.2-0.7-2.5-3.2-2.5H3.5z M12.6,75.7c0-1.5-1-2.6-3.3-2.6H3.5v5.4h5.7
		C11.7,78.5,12.6,77.3,12.6,75.7z"/>
	<path class="st0" d="M31.8,76.7H23l-1.8,4.4h-3.7L25.4,63h4l7.9,18.1h-3.7L31.8,76.7z M30.8,74.1l-2.2-5.6
		c-0.5-1.1-0.9-1.9-1.1-2.9h-0.1c-0.3,1-0.6,1.8-1.1,2.9L24,74.1H30.8z"/>
	<path class="st0" d="M47.2,72.4l-3.5,3.4v5.3h-3.5V63h3.5v8.8l8.9-8.8h4.4L49.7,70l7.8,11h-4.2L47.2,72.4z"/>
	<path class="st0" d="M74.8,78.4v2.7H60.4V63h14.2v2.7H63.9v4.8h10.2v2.6H63.9v5.2H74.8z"/>
	<path class="st0" d="M103.6,78.6v2.5c-0.5,0.2-1,0.3-1.6,0.3c-1.5,0-2.9-0.6-4-1.6c-1.6,1.2-3.6,1.9-5.9,1.9c-4.5,0-7-2.2-7-5.1
		c0-2.2,1.3-3.7,4.2-5.1c-1.7-1.7-2.4-3-2.4-4.6c0-2.8,2.3-4.5,5.5-4.5c3.3,0,5.4,1.7,5.4,4.3c0,2-1.4,3.7-3.3,4.7l-0.8,0.4L98,76
		c0.9-1.3,1.5-3.1,1.7-5.1l2.7,0.5c-0.3,2.5-1.1,4.7-2.4,6.4c0.8,0.6,1.6,0.9,2.5,0.9C103,78.7,103.3,78.7,103.6,78.6z M92.4,79.1
		c1.4,0,2.6-0.4,3.7-1.2L90.9,73c-1.8,0.9-2.4,1.8-2.4,3.2C88.4,77.9,90.1,79.1,92.4,79.1z M89.9,66.7c0,1,0.4,1.9,1.9,3.4l0.7-0.3
		c1.4-0.6,2.1-1.7,2.1-3.1c0-1.4-0.8-2.2-2.4-2.2C90.7,64.4,89.9,65.2,89.9,66.7z"/>
	<path class="st0" d="M113,72.1c0-5.7,3.8-9.6,10-9.6c5.2,0,8.1,2.8,8.8,5.7l-3.6,0.6c-0.5-1.8-2.1-3.6-5.2-3.6
		c-3.9,0-6.2,2.7-6.2,6.9c0,4,2.2,6.8,6.3,6.8c4.1,0,5.7-2.7,5.8-4.7v-0.2h-6v-2.6h9.2v9.8h-2.6l-0.3-3c-1.1,2-3.4,3.5-6.9,3.5
		C116.5,81.6,113,77.7,113,72.1z"/>
	<path class="st0" d="M134.3,72c0-5.9,3.9-9.6,10-9.6s10,3.7,10,9.6c0,5.8-3.9,9.6-10,9.6S134.3,77.8,134.3,72z M150.6,72
		c0-4.2-2.4-6.8-6.3-6.8c-3.9,0-6.3,2.6-6.3,6.8c0,4.1,2.4,6.8,6.3,6.8C148.2,78.8,150.6,76.2,150.6,72z"/>
</g>
<g>
	<g>
		<path class="st1" d="M78.1,9.7c3,2.4,6.3,5.1,7,9c0.1,0.5,0.1,1-0.2,1.3c-0.5,0.5-1.3,0.1-1.9-0.2C77.3,16.2,71.7,12.6,66.1,9
			c-1.7-1.1-3.5-2.2-5.5-2.7c-2.8-0.7-5.7,0-8.4,1c-3,1-5.9,2.4-8.6,4c-0.4,0.2-0.8,0.5-1,0.9c-0.4,1,0.7,1.9,1.7,2.5
			c4.4,2.6,7.9,6.8,9.8,11.6c0.3,0.8,0.5,1.9-0.1,2.5c-0.8,0.7-2.1,0.1-2.9-0.6c-2.7-2.1-5.4-4.2-8.1-6.2c-2.9-2.3-7.2-6.1-10-3.6
			c-4.7,4.1-8.1,10.8-6,16.6c1.4,4,5.1,6.8,9,8.7c4.7,2.2,9.9,3.4,15,4.1c22.5,3.3,46.7-0.4,65.1-13.7c3.3-2.4,6.5-5.1,8.7-8.5
			c2.2-3.4,3.5-7.6,2.8-11.7c-0.6-3.5-3.5-7.4-6.8-9.2c-0.2-0.1-0.2-0.1-0.4-0.1c-0.2,0-0.5,0.3-0.4,0.4c0.5,1.2,0.8,2.4,0.9,3.7
			c0,0.6-0.1,1.3-0.7,1.4c-0.2,0-0.5-0.1-0.7-0.2c-0.6-0.4-0.9-1.1-1.2-1.7c-1.4-2.6-3.2-5.5-6-6.2c-3.3-0.8-6.3-1.3-10.8-1.5
			c-0.8,0-2-0.1-2.1,0.7c-0.1,0.4,0.2,0.8,0.4,1.2c1.4,2.2,2.7,4.5,3.7,6.9c0.6,1.3,1,3.2-0.2,4.1c-3.1-0.2-5.5-2.6-7.3-5.1
			c-1.9-2.4-3.6-5.2-6.4-6.4C87.9,1.1,86,1,84.2,1c-4.1-0.1-8.2,0.2-12.3,0.8c-0.7,0.1-1.6,0.4-1.7,1.2c0,0.5,0.4,0.8,0.8,1.1
			C73.4,6,75.8,7.8,78.1,9.7"/>
		<g>
			<g>
				<path class="st0" d="M36.2,17.7c0.3-0.6,0.8-1.2,1.4-1.6c0.6-0.4,1.2-0.7,1.8-1c1.2-0.5,2.5-0.9,3.8-1.2
					c-1.1,0.8-2.3,1.4-3.5,1.9C38.5,16.4,37.3,16.9,36.2,17.7z"/>
			</g>
			<g>
				<path class="st0" d="M60.5,6.2c1.5-0.9,3.2-1.3,4.8-1.7c1.6-0.4,3.2-0.8,4.8-1.4c-1.3,1.2-3,1.8-4.6,2.2
					C63.8,5.6,62.2,5.8,60.5,6.2z"/>
			</g>
			<g>
				<path class="st0" d="M90.6,2c0.6-0.4,1.4-0.6,2.1-0.7c0.7-0.1,1.5-0.1,2.2,0c1.5,0.1,2.8,0.3,4.3,0.1C98.6,1.8,97.8,2,97.1,2
					c-0.7,0.1-1.5,0-2.2,0C93.4,1.9,92.1,1.7,90.6,2z"/>
			</g>
			<g>
				<path class="st0" d="M115.4,3.5c0.8-0.2,1.7-0.3,2.5,0c0.8,0.3,1.4,0.8,2.2,1c-0.4,0.2-0.9,0.2-1.3,0c-0.4-0.1-0.8-0.3-1.1-0.4
					C117,4,116.2,3.9,115.4,3.5z"/>
			</g>
		</g>
	</g>
	<g>
		<g>
			<path class="st0" d="M39.6,17.7l1.9-1.2c0.7-0.4,1.3-0.8,1.9-1.2c-0.5,0.5-1.2,1-1.8,1.4C41,17.1,40.4,17.5,39.6,17.7z"/>
		</g>
		<g>
			<path class="st0" d="M41.6,18.6c0.5-0.6,1.1-1.1,1.7-1.5c0.7-0.4,1.4-0.8,2.1-0.9c-0.7,0.4-1.3,0.7-2,1.1
				C42.8,17.7,42.2,18.2,41.6,18.6z"/>
		</g>
		<g>
			<path class="st0" d="M42.6,19.7c0.6-0.6,1.3-1.1,2.1-1.5c0.8-0.4,1.6-0.8,2.4-0.9c-0.8,0.4-1.5,0.7-2.3,1.2
				C44.1,18.8,43.4,19.2,42.6,19.7z"/>
		</g>
		<g>
			<path class="st0" d="M43.7,20.7c0.2-0.4,0.5-0.7,0.9-0.9c0.4-0.2,0.7-0.4,1.1-0.6c0.8-0.4,1.6-0.7,2.4-0.9
				c-0.8,0.4-1.5,0.7-2.3,1.1L44.7,20C44.3,20.2,44,20.4,43.7,20.7z"/>
		</g>
		<g>
			<path class="st0" d="M44.8,21.5c0.6-0.6,1.3-1,2-1.4c0.7-0.3,1.5-0.6,2.3-0.7c-0.8,0.3-1.5,0.6-2.2,1
				C46.2,20.7,45.5,21.1,44.8,21.5z"/>
		</g>
		<g>
			<path class="st0" d="M46.1,22.6c0.9-1.1,2.3-1.9,3.7-2C48.5,21,47.3,21.7,46.1,22.6z"/>
		</g>
		<g>
			<path class="st0" d="M47,23.1c0.5-0.5,1.1-0.8,1.8-1.1c0.6-0.3,1.3-0.5,2-0.6c-0.6,0.3-1.3,0.5-1.9,0.8
				C48.3,22.5,47.7,22.9,47,23.1z"/>
		</g>
		<g>
			<path class="st0" d="M47.9,24.3c0.5-0.5,1.1-0.9,1.7-1.2c0.6-0.3,1.3-0.5,2-0.5c-0.7,0.2-1.3,0.5-1.9,0.8
				C49.1,23.6,48.5,24,47.9,24.3z"/>
		</g>
		<g>
			<path class="st0" d="M48.9,25.3c0.4-0.4,1-0.7,1.5-1c0.6-0.2,1.1-0.4,1.7-0.5c-0.5,0.3-1.1,0.5-1.6,0.7
				C49.9,24.8,49.4,25.1,48.9,25.3z"/>
		</g>
		<g>
			<path class="st0" d="M50,26.1c0.3-0.4,0.8-0.7,1.2-0.9c0.5-0.2,1-0.4,1.5-0.4c-0.5,0.2-0.9,0.4-1.4,0.6
				C50.9,25.7,50.5,25.9,50,26.1z"/>
		</g>
		<g>
			<path class="st0" d="M50.8,27c0.3-0.4,0.8-0.6,1.2-0.9c0.5-0.2,0.9-0.4,1.5-0.4L50.8,27z"/>
		</g>
		<g>
			<path class="st0" d="M51.6,28.4c0.6-0.7,1.6-1.2,2.5-1.1C53.3,27.5,52.5,27.9,51.6,28.4z"/>
		</g>
		<g>
			<path class="st0" d="M65.4,6.8c1-0.5,1.9-0.8,2.9-1.2c1-0.3,2-0.7,3-0.9c-1,0.5-1.9,0.8-2.9,1.2C67.4,6.2,66.5,6.5,65.4,6.8z"/>
		</g>
		<g>
			<path class="st0" d="M67.2,7.9c0.8-0.6,1.8-1,2.7-1.4c1-0.3,2-0.6,3-0.7c-1,0.3-2,0.6-2.9,0.9C69.1,7.1,68.2,7.5,67.2,7.9z"/>
		</g>
		<g>
			<path class="st0" d="M68.5,8.6c0.7-0.5,1.6-0.8,2.4-1.1c0.8-0.3,1.7-0.5,2.6-0.5c-0.8,0.2-1.7,0.4-2.5,0.7
				C70.1,8,69.3,8.3,68.5,8.6z"/>
		</g>
		<g>
			<path class="st0" d="M69,10.2c0.7-0.6,1.6-1.1,2.5-1.5c0.9-0.4,1.9-0.6,2.9-0.7c-0.9,0.3-1.9,0.5-2.8,0.9
				C70.7,9.3,69.9,9.7,69,10.2z"/>
		</g>
		<g>
			<path class="st0" d="M70.2,10.6c0.9-0.6,1.9-1.1,2.9-1.5c1-0.3,2.1-0.6,3.2-0.6c-1,0.2-2.1,0.5-3.1,0.8
				C72.1,9.7,71.2,10.2,70.2,10.6z"/>
		</g>
		<g>
			<path class="st0" d="M71.7,11.5c0.9-0.6,1.9-1.1,2.9-1.4c1-0.3,2.1-0.6,3.2-0.7c-1,0.3-2.1,0.6-3.1,0.9
				C73.7,10.6,72.7,11,71.7,11.5z"/>
		</g>
		<g>
			<path class="st0" d="M73.3,12.1c0.7-0.6,1.6-0.9,2.4-1.2c0.9-0.3,1.8-0.5,2.7-0.5c-0.9,0.2-1.8,0.4-2.6,0.7
				C75,11.4,74.2,11.8,73.3,12.1z"/>
		</g>
		<g>
			<path class="st0" d="M74.1,13.2c0.8-0.6,1.8-1,2.7-1.3c1-0.3,1.9-0.6,3-0.6c-1,0.3-1.9,0.5-2.9,0.9C75.9,12.4,75,12.8,74.1,13.2z
				"/>
		</g>
		<g>
			<path class="st0" d="M75.4,14.2c0.8-0.5,1.7-0.9,2.6-1.2c0.9-0.3,1.9-0.5,2.8-0.5c-0.9,0.2-1.8,0.4-2.7,0.7
				C77.2,13.5,76.3,13.8,75.4,14.2z"/>
		</g>
		<g>
			<path class="st0" d="M76.7,15c0.7-0.6,1.6-1,2.5-1.3c0.9-0.3,1.8-0.5,2.7-0.4c-0.9,0.2-1.8,0.4-2.7,0.7
				C78.4,14.3,77.6,14.6,76.7,15z"/>
		</g>
		<g>
			<path class="st0" d="M78.8,15.6c0.6-0.5,1.3-0.8,2-1c0.7-0.2,1.5-0.3,2.2-0.3c-0.7,0.1-1.5,0.3-2.2,0.5
				C80.2,15.1,79.5,15.3,78.8,15.6z"/>
		</g>
		<g>
			<path class="st0" d="M80,16.8c0.5-0.4,1.1-0.7,1.7-0.9c0.6-0.2,1.3-0.3,1.9-0.3c-0.6,0.2-1.2,0.4-1.8,0.6
				C81.2,16.3,80.6,16.6,80,16.8z"/>
		</g>
		<g>
			<path class="st0" d="M81.2,17.6c0.4-0.4,0.9-0.6,1.4-0.8c0.5-0.2,1.1-0.3,1.6-0.3c-0.5,0.2-1,0.3-1.5,0.5
				C82.2,17.2,81.7,17.4,81.2,17.6z"/>
		</g>
		<g>
			<path class="st0" d="M81.8,18.5c0.4-0.4,0.8-0.6,1.3-0.8c0.5-0.2,1-0.3,1.5-0.3c-0.5,0.2-1,0.3-1.4,0.5
				C82.7,18.1,82.3,18.3,81.8,18.5z"/>
		</g>
		<g>
			<path class="st0" d="M82.6,19.5c0.3-0.3,0.7-0.5,1.1-0.6c0.4-0.1,0.8-0.2,1.2-0.2c-0.4,0.2-0.8,0.3-1.1,0.4
				C83.4,19.3,83,19.4,82.6,19.5z"/>
		</g>
		<g>
			<path class="st0" d="M94.3,3.8c0.9-0.5,1.8-0.8,2.8-1c1-0.2,2-0.3,3-0.3c-1,0.2-1.9,0.3-2.9,0.5C96.2,3.2,95.3,3.5,94.3,3.8z"/>
		</g>
		<g>
			<path class="st0" d="M95.5,4.6c0.7-0.4,1.5-0.6,2.3-0.7c0.8-0.1,1.6-0.2,2.4,0c-0.8,0.1-1.6,0.1-2.4,0.3
				C97,4.3,96.2,4.5,95.5,4.6z"/>
		</g>
		<g>
			<path class="st0" d="M95.6,5.7c0.3-0.3,0.8-0.4,1.2-0.5c0.4-0.1,0.8-0.2,1.3-0.2c0.9-0.1,1.7-0.1,2.6-0.1l-2.6,0.3l-1.3,0.2
				C96.4,5.5,96,5.5,95.6,5.7z"/>
		</g>
		<g>
			<path class="st0" d="M96.6,6.5c0.7-0.3,1.5-0.4,2.3-0.5c0.8,0,1.6,0,2.3,0.2c-0.8,0-1.5,0-2.3,0.1C98.1,6.3,97.4,6.4,96.6,6.5z"
				/>
		</g>
		<g>
			<path class="st0" d="M97,7.8c0.8-0.4,1.7-0.6,2.5-0.7c0.9-0.1,1.8-0.1,2.6,0.2c-0.9,0-1.7,0-2.6,0.1C98.7,7.4,97.9,7.6,97,7.8z"
				/>
		</g>
		<g>
			<path class="st0" d="M98.1,9c0.7-0.4,1.5-0.6,2.2-0.7c0.8-0.1,1.6-0.1,2.4,0c-0.8,0.1-1.6,0.1-2.3,0.2C99.6,8.6,98.8,8.8,98.1,9z
				"/>
		</g>
		<g>
			<path class="st0" d="M99.1,10.2c1.3-0.7,2.8-0.9,4.2-0.6C101.8,9.6,100.5,9.8,99.1,10.2z"/>
		</g>
		<g>
			<path class="st0" d="M100.5,11.2c0.9-0.6,2.1-0.9,3.1-0.6C102.6,10.7,101.6,10.9,100.5,11.2z"/>
		</g>
		<g>
			<path class="st0" d="M101.5,12.2c0.3-0.3,0.7-0.4,1-0.5c0.4-0.1,0.8-0.1,1.2,0c-0.4,0.1-0.7,0.2-1.1,0.3
				C102.2,12,101.9,12.2,101.5,12.2z"/>
		</g>
		<g>
			<path class="st0" d="M102.3,13.1c0.2-0.2,0.4-0.3,0.6-0.4c0.2-0.1,0.5-0.1,0.7,0c-0.2,0.1-0.4,0.2-0.6,0.3
				C102.8,13,102.6,13.1,102.3,13.1z"/>
		</g>
		<g>
			<path class="st0" d="M48,11.2c1.4-0.9,2.9-1.7,4.4-2.4c1.5-0.6,3.2-1.1,4.9-1.1c0.8,0,1.7,0.2,2.5,0.5c0.8,0.3,1.5,0.7,2.2,1.2
				c1.4,0.9,2.9,1.7,4.3,2.6c-1.5-0.8-2.9-1.6-4.4-2.5c-0.7-0.4-1.4-0.8-2.2-1.1C59,8.1,58.2,8,57.3,8c-1.7,0-3.3,0.4-4.8,1
				C51,9.6,49.5,10.4,48,11.2z"/>
		</g>
		<g>
			<path class="st0" d="M45.5,13.7c0.8,0.5,1.6,1,2.4,1.5c0.8,0.5,1.5,1.2,2.2,1.8c1.3,1.3,2.5,2.9,3.3,4.6c-1-1.6-2.1-3.1-3.5-4.4
				c-0.7-0.7-1.4-1.3-2.1-1.8L45.5,13.7z"/>
		</g>
		<g>
			<path class="st0" d="M47.1,13.4c0.9,0.1,1.8,0.5,2.3,1.3C48.7,14.2,48,13.8,47.1,13.4z"/>
		</g>
		<g>
			<path class="st0" d="M33.1,20.8c-2,2.2-3.4,4.8-4.1,7.6C29.4,25.5,30.9,22.7,33.1,20.8z"/>
		</g>
		<g>
			<path class="st0" d="M32.2,24.3c-0.9,1.2-1.6,2.5-2.1,4C30.3,26.7,31.1,25.3,32.2,24.3z"/>
		</g>
		<g>
			<path class="st0" d="M32.3,26.7c-0.7,1-1.1,2.1-1.3,3.3C30.9,28.8,31.4,27.5,32.3,26.7z"/>
		</g>
		<g>
			<path class="st0" d="M33.4,27.7c-0.7,1.1-1.2,2.2-1.4,3.4C31.9,29.9,32.4,28.6,33.4,27.7z"/>
		</g>
		<g>
			<path class="st0" d="M34.4,29c-0.2,0.5-0.4,1-0.5,1.5c-0.2,0.5-0.3,1-0.4,1.6c-0.1-0.6,0-1.1,0.2-1.6C33.8,29.9,34,29.4,34.4,29z
				"/>
		</g>
		<g>
			<path class="st0" d="M35.6,30.1c-0.3,0.9-0.6,1.7-0.7,2.6C34.7,31.8,35,30.8,35.6,30.1z"/>
		</g>
		<g>
			<path class="st0" d="M28.8,29.3c-0.8,2.5-0.8,5-0.3,7.5C27.6,34.4,27.7,31.6,28.8,29.3z"/>
		</g>
		<g>
			<path class="st0" d="M30,31.5c-0.2,1.3-0.4,2.5-0.4,3.8c-0.1,1.3,0.1,2.5,0.6,3.7c-0.7-1.1-0.9-2.4-0.8-3.7
				C29.4,34,29.6,32.8,30,31.5z"/>
		</g>
		<g>
			<path class="st0" d="M31.4,33.3c-0.6,2.3-0.7,4.7-0.2,7C30.4,38,30.4,35.4,31.4,33.3z"/>
		</g>
		<g>
			<path class="st0" d="M32.7,34c-0.1,1.1-0.1,2.3,0,3.4c0.1,1.1,0.2,2.3,0.5,3.4c-0.4-1.1-0.6-2.2-0.7-3.4
				C32.3,36.2,32.4,35.1,32.7,34z"/>
		</g>
		<g>
			<path class="st0" d="M34.3,35.3c-0.1,1.2-0.2,2.3-0.2,3.5c0,1.2,0.1,2.3,0.3,3.5c-0.4-1.1-0.5-2.3-0.5-3.5
				C33.9,37.6,34,36.5,34.3,35.3z"/>
		</g>
		<g>
			<path class="st0" d="M36,35.6c-0.2,1.2-0.4,2.5-0.3,3.7c0,1.2,0.1,2.5,0.1,3.7c-0.2-1.2-0.3-2.5-0.4-3.7
				C35.4,38.1,35.5,36.8,36,35.6z"/>
		</g>
		<g>
			<path class="st0" d="M37.6,36.9c-0.2,1.1-0.3,2.1-0.3,3.2c0,1.1,0,2.1,0.1,3.2c-0.3-1-0.4-2.1-0.4-3.2C37.1,39,37.2,38,37.6,36.9
				z"/>
		</g>
		<g>
			<path class="st0" d="M39.1,37.9c-0.1,1-0.3,2.1-0.3,3.1c-0.1,1,0,2.1,0,3.1c-0.2-1-0.3-2.1-0.3-3.1
				C38.7,39.9,38.8,38.9,39.1,37.9z"/>
		</g>
		<g>
			<path class="st0" d="M40.8,38.5c-0.2,1.1-0.3,2.1-0.4,3.2c-0.1,1.1-0.1,2.1-0.1,3.2c-0.2-1.1-0.2-2.1-0.2-3.2
				C40.3,40.6,40.5,39.6,40.8,38.5z"/>
		</g>
		<g>
			<path class="st0" d="M42.3,39.4c-0.1,1-0.3,2.1-0.3,3.1c-0.1,1-0.1,2.1-0.1,3.1c-0.2-1-0.2-2.1-0.1-3.1
				C41.8,41.4,42,40.4,42.3,39.4z"/>
		</g>
		<g>
			<path class="st0" d="M43.6,40.3c-0.1,0.9-0.3,1.8-0.3,2.6c-0.1,0.9,0,1.8,0.1,2.7c-0.3-0.9-0.3-1.8-0.3-2.7
				C43.1,42,43.3,41.1,43.6,40.3z"/>
		</g>
		<g>
			<path class="st0" d="M45.4,40.5c-0.1,0.9-0.2,1.8-0.3,2.7c-0.1,0.9-0.1,1.8-0.1,2.7c-0.2-0.9-0.2-1.8-0.2-2.7
				C44.9,42.3,45.1,41.4,45.4,40.5z"/>
		</g>
		<g>
			<path class="st0" d="M47.1,40.9c-0.4,1.8-0.5,3.6-0.3,5.5C46.3,44.5,46.4,42.6,47.1,40.9z"/>
		</g>
		<g>
			<path class="st0" d="M48.7,41.2c0,0.8,0,1.7-0.1,2.5c-0.1,0.8-0.2,1.7-0.3,2.5c0-0.9,0-1.7,0.1-2.5C48.5,42.9,48.6,42,48.7,41.2z
				"/>
		</g>
		<g>
			<path class="st0" d="M50.1,41.2c0.1,0.8,0.2,1.6,0.1,2.4c0,0.8-0.1,1.6-0.3,2.4c0-0.8,0-1.6,0.1-2.4C50,42.7,50,42,50.1,41.2z"/>
		</g>
		<g>
			<path class="st0" d="M51.6,41.3c0.1,0.9,0.2,1.7,0.1,2.6c0,0.9-0.1,1.7-0.3,2.6c0-0.9,0.1-1.7,0.1-2.6
				C51.6,43,51.6,42.1,51.6,41.3z"/>
		</g>
		<g>
			<path class="st0" d="M53.3,41.4c0.1,0.9,0.1,1.9,0.1,2.8c-0.1,0.9-0.2,1.9-0.4,2.8L53.3,41.4z"/>
		</g>
		<g>
			<path class="st0" d="M55,41.5c0.2,0.9,0.2,1.7,0.1,2.6c-0.1,0.9-0.2,1.7-0.4,2.6c0.1-0.9,0.1-1.7,0.2-2.6
				C54.9,43.2,55,42.4,55,41.5z"/>
		</g>
		<g>
			<path class="st0" d="M56.6,41.1c0.2,1,0.3,2.1,0.3,3.1c0,1.1-0.1,2.1-0.4,3.1c0-1.1,0.1-2.1,0.1-3.1
				C56.7,43.2,56.7,42.2,56.6,41.1z"/>
		</g>
		<g>
			<path class="st0" d="M58.1,39.6c0.3,1.4,0.4,2.9,0.5,4.3c0,1.4-0.2,2.9-0.7,4.3c0.3-1.4,0.5-2.8,0.5-4.3
				C58.3,42.4,58.2,41,58.1,39.6z"/>
		</g>
		<g>
			<path class="st0" d="M60.1,39.9c0.2,1.2,0.2,2.5,0.1,3.8c-0.1,1.3-0.2,2.5-0.6,3.7c0.1-1.3,0.3-2.5,0.3-3.8
				C60.1,42.4,60.1,41.1,60.1,39.9z"/>
		</g>
		<g>
			<path class="st0" d="M61.4,39.8c0.1,0.7,0.2,1.3,0.3,2c0.1,0.7,0.1,1.3,0,2c-0.1,1.3-0.3,2.6-0.7,3.9c0.2-1.3,0.4-2.6,0.5-3.9
				C61.6,42.4,61.5,41.1,61.4,39.8z"/>
		</g>
		<g>
			<path class="st0" d="M63.3,39.7c0.3,1.3,0.3,2.7,0.3,4c-0.1,1.4-0.2,2.7-0.6,4c0.2-1.3,0.3-2.7,0.4-4
				C63.4,42.4,63.4,41,63.3,39.7z"/>
		</g>
		<g>
			<path class="st0" d="M65.2,40c0.2,1.4,0.2,2.8,0.2,4.3c-0.1,1.4-0.2,2.9-0.6,4.2c0.1-1.4,0.3-2.8,0.3-4.2
				C65.2,42.8,65.2,41.4,65.2,40z"/>
		</g>
		<g>
			<path class="st0" d="M66.8,38.7c0.4,1.6,0.5,3.2,0.5,4.9c0,1.6-0.2,3.3-0.6,4.9c0.2-1.6,0.3-3.2,0.3-4.9
				C67.1,41.9,67,40.3,66.8,38.7z"/>
		</g>
		<g>
			<path class="st0" d="M68.5,38.6c0.3,1.5,0.4,3.1,0.3,4.7c-0.1,1.6-0.3,3.1-0.7,4.6c0.2-1.5,0.4-3.1,0.5-4.6
				C68.7,41.7,68.6,40.2,68.5,38.6z"/>
		</g>
		<g>
			<path class="st0" d="M69.9,39.2c0.3,1.5,0.3,3,0.2,4.5c-0.1,1.5-0.4,3-0.9,4.5c0.3-1.5,0.5-3,0.6-4.5
				C70,42.2,69.9,40.7,69.9,39.2z"/>
		</g>
		<g>
			<path class="st0" d="M71.1,39.2c0.4,1.5,0.5,3.1,0.4,4.7c-0.1,1.6-0.3,3.1-0.9,4.6c0.3-1.5,0.6-3.1,0.6-4.6
				C71.4,42.3,71.3,40.7,71.1,39.2z"/>
		</g>
		<g>
			<path class="st0" d="M72.7,38.2c0.4,1.5,0.6,3.2,0.6,4.8c0,1.6-0.2,3.2-0.6,4.8c0.2-1.6,0.4-3.2,0.4-4.8
				C73.1,41.4,72.9,39.8,72.7,38.2z"/>
		</g>
		<g>
			<path class="st0" d="M74.2,38.3c0.4,1.6,0.5,3.2,0.6,4.8c0,1.6-0.1,3.2-0.4,4.8c0.1-1.6,0.2-3.2,0.2-4.8
				C74.5,41.5,74.4,39.9,74.2,38.3z"/>
		</g>
		<g>
			<path class="st0" d="M76.1,38.3c0.3,1.6,0.3,3.2,0.3,4.8c-0.1,1.6-0.3,3.2-0.6,4.7c0.2-1.6,0.3-3.2,0.4-4.7
				C76.2,41.5,76.2,39.9,76.1,38.3z"/>
		</g>
		<g>
			<path class="st0" d="M77.7,37.8c0.3,1.7,0.3,3.4,0.2,5.1c-0.1,1.7-0.3,3.4-0.8,5c0.2-1.7,0.4-3.3,0.5-5
				C77.7,41.2,77.7,39.5,77.7,37.8z"/>
		</g>
		<g>
			<path class="st0" d="M79.1,37.5c0.4,1.5,0.5,3,0.5,4.5c-0.1,1.5-0.3,3-0.7,4.5c0.3-1.5,0.4-3,0.5-4.5
				C79.4,40.5,79.3,39,79.1,37.5z"/>
		</g>
		<g>
			<path class="st0" d="M80.8,37.1c0.9,3.2,0.8,6.7-0.4,9.8C81.2,43.6,81.4,40.3,80.8,37.1z"/>
		</g>
		<g>
			<path class="st0" d="M102.3,3.3c0.7,0.4,1.2,1.1,1.6,1.8c0.4,0.7,0.7,1.4,0.9,2.2C104.1,5.9,103.5,4.4,102.3,3.3z"/>
		</g>
		<g>
			<path class="st0" d="M74.1,3.5c-0.2,0.2,0,0.5,0.2,0.7c0.2,0.2,0.4,0.4,0.6,0.6c0.4,0.4,0.8,0.7,1.2,1c0.9,0.6,1.8,1.2,2.7,1.8
				c1.8,1.2,3.5,2.6,5.1,4.1c-1.7-1.4-3.4-2.7-5.2-3.9C77.8,7.3,76.9,6.7,76,6c-0.4-0.3-0.8-0.7-1.2-1.1c-0.2-0.2-0.4-0.4-0.5-0.6
				C74.1,4.1,73.9,3.7,74.1,3.5z"/>
		</g>
		<g>
			<path class="st0" d="M79.6,7c0.8,0.6,1.7,1.2,2.5,1.7c0.8,0.6,1.7,1.2,2.3,2.1C83.7,10.1,82.9,9.5,82,9C81.2,8.4,80.3,7.8,79.6,7
				z"/>
		</g>
		<g>
			<path class="st0" d="M80.6,2.6c0.7-0.2,1.4-0.3,2.1-0.4c0.7,0,1.5,0,2.2,0.2c-0.7,0-1.4,0-2.1,0.1C82.1,2.5,81.4,2.6,80.6,2.6z"
				/>
		</g>
		<g>
			<path class="st0" d="M87.1,2.8c1.1,0.5,2.1,1.2,3.1,2.1c0.4,0.4,0.9,0.9,1.3,1.4c0.4,0.5,0.8,1,0.9,1.6c-0.2-0.6-0.7-1-1-1.5
				C90.9,5.9,90.5,5.4,90,5C89.1,4.2,88.1,3.5,87.1,2.8z"/>
		</g>
		<g>
			<path class="st0" d="M75.7,30.2c0.5,1,0.8,2.2,1.1,3.3c0.2,1.1,0.4,2.3,0.4,3.4c-0.2-1.1-0.4-2.3-0.6-3.4
				C76.3,32.4,76,31.3,75.7,30.2z"/>
		</g>
		<g>
			<path class="st0" d="M77.1,29.4c0.5,1,0.9,2.2,1.2,3.3c0.3,1.1,0.5,2.3,0.5,3.5c-0.2-1.1-0.4-2.3-0.7-3.4
				C77.9,31.6,77.5,30.5,77.1,29.4z"/>
		</g>
		<g>
			<path class="st0" d="M79,30.2c0.5,0.9,0.8,1.8,1.1,2.8c0.2,1,0.4,2,0.3,3c-0.2-1-0.3-2-0.6-2.9C79.6,32.1,79.3,31.2,79,30.2z"/>
		</g>
		<g>
			<path class="st0" d="M80.9,32.3c0.2,0.5,0.3,1,0.5,1.5c0.1,0.5,0.1,1,0.1,1.5c-0.2-0.5-0.2-1-0.3-1.5
				C81,33.3,80.9,32.8,80.9,32.3z"/>
		</g>
		<g>
			<path class="st0" d="M75.4,33.8c0.3,0.4,0.4,0.8,0.5,1.3c0.1,0.5,0.1,0.9,0,1.4c-0.1-0.5-0.2-0.9-0.2-1.3
				C75.6,34.7,75.5,34.2,75.4,33.8z"/>
		</g>
		<g>
			<path class="st0" d="M74.4,34.5c0.6,0.6,0.8,1.6,0.5,2.4C74.9,36,74.7,35.3,74.4,34.5z"/>
		</g>
		<g>
			<path class="st0" d="M73.2,34.8c0.2,0.3,0.3,0.7,0.4,1c0,0.4,0.1,0.7,0,1.1c-0.1-0.4-0.1-0.7-0.2-1.1
				C73.3,35.5,73.3,35.2,73.2,34.8z"/>
		</g>
		<g>
			<path class="st0" d="M82,35.7c0.6,1.9,0.9,3.8,1,5.8c0.1,2-0.1,3.9-0.6,5.8c0.3-1.9,0.4-3.9,0.3-5.8C82.7,39.5,82.5,37.6,82,35.7
				z"/>
		</g>
		<g>
			<path class="st0" d="M83.6,35c0.4,1.9,0.7,3.9,0.8,5.8c0.1,2,0.1,3.9-0.2,5.9c0-2,0-3.9-0.1-5.9C84,38.9,83.8,36.9,83.6,35z"/>
		</g>
		<g>
			<path class="st0" d="M85.3,35.2c0.6,1.7,0.9,3.5,1.1,5.4c0.1,1.8,0,3.7-0.3,5.4c0.2-1.8,0.2-3.6,0.1-5.4
				C86,38.8,85.7,37,85.3,35.2z"/>
		</g>
		<g>
			<path class="st0" d="M86.9,33.5c0.6,1.9,1,3.8,1.1,5.8c0.1,2,0,3.9-0.4,5.9c0.2-1.9,0.3-3.9,0.2-5.8
				C87.6,37.3,87.3,35.4,86.9,33.5z"/>
		</g>
		<g>
			<path class="st0" d="M88.5,33.2c0.6,2,1,4.1,1.1,6.2c0.1,2.1,0,4.2-0.4,6.3c0.2-2.1,0.2-4.2,0.1-6.3
				C89.3,37.3,88.9,35.2,88.5,33.2z"/>
		</g>
		<g>
			<path class="st0" d="M90.2,32.3c0.7,2.1,1.1,4.3,1.3,6.6c0.2,2.2,0.1,4.5-0.3,6.7c0.2-2.2,0.2-4.5,0.1-6.7
				C91.1,36.7,90.7,34.5,90.2,32.3z"/>
		</g>
		<g>
			<path class="st0" d="M91.9,32.3c0.7,2,1,4.1,1.2,6.2c0.1,2.1,0.1,4.3-0.3,6.3c0.2-2.1,0.2-4.2,0.1-6.3
				C92.7,36.4,92.4,34.3,91.9,32.3z"/>
		</g>
		<g>
			<path class="st0" d="M93.5,31.9c0.6,2.1,1,4.3,1.2,6.5c0.2,2.2,0.2,4.4-0.1,6.6c0-2.2,0-4.4-0.2-6.6
				C94.3,36.3,93.9,34.1,93.5,31.9z"/>
		</g>
		<g>
			<path class="st0" d="M95,31.6c0.6,1.9,0.9,3.9,1.1,5.8c0.2,2,0.2,4,0,5.9c0-2-0.1-3.9-0.3-5.9C95.7,35.5,95.4,33.6,95,31.6z"/>
		</g>
		<g>
			<path class="st0" d="M96.9,31.2c0.6,2,0.9,4,1,6.1c0.1,2,0.1,4.1-0.1,6.1c0.1-2,0-4.1-0.1-6.1C97.5,35.3,97.2,33.2,96.9,31.2z"/>
		</g>
		<g>
			<path class="st0" d="M98.4,30.1c0.6,2,0.9,4.1,1.1,6.2c0.1,2.1,0.1,4.2-0.2,6.3c0.1-2.1,0.1-4.2,0-6.3
				C99.1,34.3,98.8,32.2,98.4,30.1z"/>
		</g>
		<g>
			<path class="st0" d="M99.9,29.9c0.6,1.9,1,3.8,1.1,5.8c0.1,2,0.1,3.9-0.3,5.9c0.2-1.9,0.2-3.9,0.1-5.8
				C100.7,33.8,100.4,31.8,99.9,29.9z"/>
		</g>
		<g>
			<path class="st0" d="M101.5,29.4c0.7,2,1,4,1.2,6.1c0.1,2.1,0.1,4.2-0.3,6.2c0.2-2.1,0.2-4.1,0.1-6.2
				C102.3,33.5,102,31.4,101.5,29.4z"/>
		</g>
		<g>
			<path class="st0" d="M102.8,28.7c0.8,2,1.2,4.1,1.4,6.3c0.2,2.1,0.1,4.3-0.3,6.4c0.2-2.1,0.2-4.3,0-6.4
				C103.8,32.8,103.3,30.7,102.8,28.7z"/>
		</g>
		<g>
			<path class="st0" d="M104.6,28.3c0.7,1.8,1,3.7,1.2,5.6c0.1,1.9,0,3.8-0.4,5.7c0.2-1.9,0.3-3.8,0.1-5.7
				C105.5,32,105.1,30.1,104.6,28.3z"/>
		</g>
		<g>
			<path class="st0" d="M106.4,28.2c0.6,1.7,0.9,3.5,1,5.3c0.1,1.8,0,3.6-0.4,5.4c0.2-1.8,0.3-3.6,0.2-5.4
				C107.1,31.7,106.8,30,106.4,28.2z"/>
		</g>
		<g>
			<path class="st0" d="M107.7,27.2c0.6,1.7,0.9,3.6,1.1,5.4c0.1,1.8,0.1,3.7-0.3,5.5c0.1-1.8,0.2-3.7,0.1-5.5
				C108.4,30.7,108.1,28.9,107.7,27.2z"/>
		</g>
		<g>
			<path class="st0" d="M109,26c1.4,3.4,1.8,7.3,0.9,10.9C110.4,33.3,110.1,29.6,109,26z"/>
		</g>
		<g>
			<path class="st0" d="M110.8,26c0.6,1.7,0.9,3.5,1.1,5.3c0.1,1.8,0.1,3.6-0.2,5.4c0.1-1.8,0.1-3.6,0-5.4
				C111.5,29.5,111.2,27.7,110.8,26z"/>
		</g>
		<g>
			<path class="st0" d="M112.2,24.9c1.5,3.4,2,7.3,1.3,11C113.9,32.2,113.4,28.5,112.2,24.9z"/>
		</g>
		<g>
			<path class="st0" d="M114,24c0.6,1.7,0.9,3.5,1.1,5.2c0.2,1.8,0.2,3.6,0,5.4c0-1.8,0-3.6-0.2-5.3C114.7,27.5,114.4,25.7,114,24z"
				/>
		</g>
		<g>
			<path class="st0" d="M115.4,23.3c0.6,1.5,1,3.1,1.2,4.7c0.2,1.6,0.1,3.3-0.2,4.9c0.1-1.6,0.1-3.2-0.1-4.8
				C116.2,26.5,115.9,24.9,115.4,23.3z"/>
		</g>
		<g>
			<path class="st0" d="M116.7,22.5c1.6,2.5,2.2,5.7,1.7,8.6C118.6,28.1,118,25.2,116.7,22.5z"/>
		</g>
		<g>
			<path class="st0" d="M118.3,22.3c1.3,2.4,1.9,5.3,1.5,8C119.8,27.5,119.3,24.8,118.3,22.3z"/>
		</g>
		<g>
			<path class="st0" d="M119.8,20.9c0.6,1.1,1,2.4,1.3,3.7c0.2,1.3,0.3,2.6,0.2,3.9c-0.1-1.3-0.2-2.6-0.4-3.8
				C120.6,23.4,120.2,22.2,119.8,20.9z"/>
		</g>
		<g>
			<path class="st0" d="M120.8,20.1c1.4,1.5,2.1,3.7,1.8,5.8C122.6,23.9,121.9,21.9,120.8,20.1z"/>
		</g>
		<g>
			<path class="st0" d="M121.9,18.8c1.6,1.3,2.4,3.6,1.8,5.6C123.9,22.4,123.3,20.4,121.9,18.8z"/>
		</g>
		<g>
			<path class="st0" d="M123,17.6c0.4,0.2,0.7,0.6,0.9,1c0.2,0.4,0.4,0.8,0.6,1.2c0.2,0.4,0.3,0.8,0.5,1.3c0.1,0.4,0.1,0.9,0.1,1.3
				c-0.1-0.9-0.4-1.7-0.8-2.5l-0.6-1.2C123.6,18.3,123.4,17.9,123,17.6z"/>
		</g>
		<g>
			<path class="st0" d="M124.1,16.5c1.3,0.6,2.2,2.2,1.9,3.7C125.9,18.7,125.2,17.4,124.1,16.5z"/>
		</g>
		<g>
			<path class="st0" d="M125,15c1.1,0.3,1.9,1.6,1.7,2.8C126.6,16.6,126,15.6,125,15z"/>
		</g>
		<g>
			<path class="st0" d="M111.6,21.4c0.3,0.4,0.4,0.8,0.5,1.3c0.1,0.4,0.1,0.9-0.1,1.3c-0.1-0.4-0.1-0.9-0.2-1.3
				C111.8,22.2,111.7,21.8,111.6,21.4z"/>
		</g>
		<g>
			<path class="st0" d="M112.7,20.6c0.8,0.6,1,1.8,0.6,2.7C113.4,22.3,113.2,21.5,112.7,20.6z"/>
		</g>
		<g>
			<path class="st0" d="M114,19.9c0.6,0.6,0.9,1.5,0.7,2.3C114.6,21.4,114.3,20.7,114,19.9z"/>
		</g>
		<g>
			<path class="st0" d="M115.1,16.6c0.3,0.8,0.8,1.6,1,2.5c0.2,0.9,0.3,1.8,0,2.7c0-0.9,0-1.8-0.2-2.6
				C115.7,18.3,115.2,17.5,115.1,16.6z"/>
		</g>
		<g>
			<path class="st0" d="M116.9,17.9c0.6,0.8,0.9,1.9,0.8,2.9C117.4,19.7,117.2,18.8,116.9,17.9z"/>
		</g>
		<g>
			<path class="st0" d="M116.9,9.4c-0.9-0.7-1.5-1.8-2.1-2.8c-0.6-1-1.3-1.9-2.4-2.4l-3.3-1.1c-1.1-0.3-2.3-0.4-3.4-0.1
				c1.1-0.4,2.3-0.4,3.5-0.1c1.1,0.3,2.2,0.7,3.3,1.1c1.1,0.5,1.9,1.5,2.4,2.5C115.6,7.5,116.1,8.6,116.9,9.4z"/>
		</g>
		<g>
			<path class="st0" d="M105.4,8.5c0.2,0.3,0.4,0.6,0.5,1c0.1,0.4,0.1,0.7,0.1,1.1c-0.2-0.3-0.2-0.7-0.3-1
				C105.5,9.2,105.4,8.9,105.4,8.5z"/>
		</g>
		<g>
			<g>
				<path class="st0" d="M117,5.1c0.6-0.1,1.1-0.1,1.7,0c0.6,0.1,1.1,0.3,1.6,0.6c-0.6-0.1-1.1-0.3-1.6-0.4
					C118.1,5.2,117.6,5.2,117,5.1z"/>
			</g>
			<g>
				<path class="st0" d="M117.6,6c0.5-0.1,0.9,0,1.4,0c0.5,0.1,0.9,0.2,1.3,0.5c-0.5-0.1-0.9-0.2-1.4-0.3
					C118.5,6.2,118.1,6.1,117.6,6z"/>
			</g>
			<g>
				<path class="st0" d="M118.1,7.3c0.8-0.2,1.7-0.1,2.4,0.4C119.7,7.5,118.9,7.4,118.1,7.3z"/>
			</g>
			<g>
				<path class="st0" d="M118.9,8.5c0.4-0.3,1.2-0.3,1.5,0.2C119.9,8.6,119.5,8.5,118.9,8.5z"/>
			</g>
		</g>
	</g>
</g>
<g>
	<path class="st0" d="M25.5,95.8c0,1.5-0.9,2.4-2.4,2.4h-1.2v3.1h-1.3v-7.8h2.4C24.6,93.5,25.5,94.4,25.5,95.8z M24.1,95.8
		c0-0.9-0.4-1.4-1.2-1.4h-1v2.8h1C23.7,97.2,24.1,96.7,24.1,95.8z"/>
	<path class="st0" d="M31.6,99.2h-2.3l-0.5,2.1h-1.3l2.2-7.8h1.5l2.2,7.8h-1.3L31.6,99.2z M29.3,93l-0.7-0.2
		c0.1-0.7,0.5-1.1,1.1-1.1c0.7,0,0.9,0.6,1.3,0.6c0.2,0,0.4-0.2,0.4-0.5l0.7,0.2c-0.1,0.7-0.5,1.1-1.1,1.1c-0.7,0-0.9-0.6-1.3-0.6
		C29.5,92.5,29.4,92.7,29.3,93z M31.3,98.2l-0.7-2.6c-0.1-0.3-0.1-0.6-0.2-1h0c-0.1,0.4-0.1,0.7-0.2,1l-0.7,2.6H31.3z"/>
	<path class="st0" d="M40.8,100.3v1h-4.3v-7.8h4.2v1h-2.9v2.3h2.7v1h-2.7v2.5H40.8z"/>
	<path class="st0" d="M43.6,99l1.2-0.4c0.1,1.2,0.6,1.8,1.6,1.8c0.7,0,1.1-0.4,1.1-1.2c0-0.7-0.3-1-1-1.3l-1-0.3
		c-1.1-0.3-1.6-1.2-1.6-2.2c0-1.4,1-2.2,2.4-2.2c1.4,0,2.3,0.6,2.5,2.2l-1.2,0.4c-0.1-1.1-0.6-1.6-1.4-1.6c-0.7,0-1.1,0.4-1.1,1.1
		c0,0.6,0.3,1,1,1.2l1,0.4c1.1,0.4,1.6,1.1,1.6,2.3c0,1.4-0.9,2.3-2.4,2.3C44.7,101.5,43.8,100.7,43.6,99z"/>
	<path class="st0" d="M59.8,99.2h-2.3l-0.5,2.1h-1.3l2.2-7.8h1.5l2.2,7.8h-1.3L59.8,99.2z M59.6,98.2l-0.7-2.6
		c-0.1-0.3-0.1-0.6-0.2-1h0c-0.1,0.4-0.1,0.7-0.2,1l-0.7,2.6H59.6z"/>
	<path class="st0" d="M67.2,98.1h-1v3.2h-1.3v-7.8h2.5c1.8,0,2.4,0.9,2.4,2.3c0,1-0.4,1.8-1.3,2.1l1.5,3.4h-1.4L67.2,98.1z
		 M66.1,97.2h1c0.9,0,1.2-0.5,1.2-1.4s-0.3-1.3-1.2-1.3h-1V97.2z"/>
	<path class="st0" d="M77.4,94.6h-2v6.7h-1.3v-6.7h-2v-1.1h5.2V94.6z"/>
	<path class="st0" d="M84.8,100.3v1h-4.3v-7.8h4.2v1h-2.9v2.3h2.7v1h-2.7v2.5H84.8z"/>
	<path class="st0" d="M87.5,99l1.2-0.4c0.1,1.2,0.6,1.8,1.6,1.8c0.7,0,1.1-0.4,1.1-1.2c0-0.7-0.3-1-1-1.3l-1-0.3
		c-1.1-0.3-1.6-1.2-1.6-2.2c0-1.4,1-2.2,2.4-2.2c1.4,0,2.3,0.6,2.5,2.2l-1.2,0.4c-0.1-1.1-0.6-1.6-1.4-1.6c-0.7,0-1.1,0.4-1.1,1.1
		c0,0.6,0.3,1,1,1.2l1,0.4c1.1,0.4,1.6,1.1,1.6,2.3c0,1.4-0.9,2.3-2.4,2.3C88.6,101.5,87.7,100.7,87.5,99z"/>
	<path class="st0" d="M99.5,99.2h-2.3l-0.5,2.1h-1.3l2.2-7.8h1.5l2.2,7.8H100L99.5,99.2z M99.2,98.2l-0.7-2.6
		c-0.1-0.3-0.1-0.6-0.2-1h0c-0.1,0.4-0.1,0.7-0.2,1l-0.7,2.6H99.2z"/>
	<path class="st0" d="M104.5,93.5h1.5l2.4,4.8c0.2,0.4,0.3,0.7,0.4,1.2h0c0-0.5,0-1,0-1.5v-4.5h1.2v7.8h-1.4l-2.5-5
		c-0.2-0.4-0.3-0.8-0.4-1.2h0c0,0.4,0,0.9,0,1.4v4.8h-1.2V93.5z"/>
	<path class="st0" d="M117.2,99.2h-2.3l-0.5,2.1h-1.3l2.2-7.8h1.5l2.2,7.8h-1.3L117.2,99.2z M117,98.2l-0.7-2.6
		c-0.1-0.3-0.1-0.6-0.2-1h0c-0.1,0.4-0.1,0.7-0.2,1l-0.7,2.6H117z"/>
	<path class="st0" d="M122.2,101.3v-7.8h1.3v7.8H122.2z"/>
	<path class="st0" d="M126.7,99l1.2-0.4c0.1,1.2,0.6,1.8,1.6,1.8c0.7,0,1.1-0.4,1.1-1.2c0-0.7-0.3-1-1-1.3l-1-0.3
		c-1.1-0.3-1.6-1.2-1.6-2.2c0-1.4,1-2.2,2.4-2.2c1.4,0,2.3,0.6,2.5,2.2l-1.2,0.4c-0.1-1.1-0.6-1.6-1.4-1.6c-0.7,0-1.1,0.4-1.1,1.1
		c0,0.6,0.3,1,1,1.2l1,0.4c1.1,0.4,1.6,1.1,1.6,2.3c0,1.4-0.9,2.3-2.4,2.3C127.9,101.5,126.9,100.7,126.7,99z"/>
</g>
<rect x="55.1" y="48.3" class="st2" width="10" height="10"/>
</svg>
