<svg id="Layer_1" data-name="Layer 1" xmlns="http://www.w3.org/2000/svg" viewBox="0 0 323.95 56.88"><defs><style>.cls-1,.cls-2{fill:none;}.cls-2{stroke:#000;stroke-miterlimit:10;stroke-width:0.75px;}</style></defs><title>bakeandgo_logo_01_black</title><rect class="cls-1" x="79.91" y="26.75" width="10" height="10"/><path d="M153.75,33.48c0,3.23-2.11,6.22-7.76,6.22H133.74V17.4h11.88c5.52,0,7.53,2.86,7.53,5.78a4.92,4.92,0,0,1-4,4.93A5,5,0,0,1,153.75,33.48ZM138.11,20.6v6.19h6.69c3.23,0,3.92-1.63,3.92-3.14s-.84-3-3.92-3Zm11.21,12.53c0-1.88-1.19-3.26-4-3.26h-7.19v6.62h7.07C148.19,36.49,149.32,35,149.32,33.13Z"/><path d="M173,34.26H162.07l-2.2,5.44h-4.55l9.73-22.3H170l9.74,22.3h-4.56Zm-1.25-3.17-2.77-6.84a19.15,19.15,0,0,1-1.38-3.58h-.06a21.8,21.8,0,0,1-1.41,3.58l-2.77,6.84Z"/><path d="M191.89,29l-4.33,4.14v6.6H183.2V17.4h4.36V28.23l11-10.83h5.37L195,26.1l9.57,13.6h-5.12Z"/><path d="M225.93,36.37V39.7H208.19V17.4h17.52v3.33H212.55v6h12.63v3.24H212.55v6.44Z"/><path d="M261.47,36.62v3.11a6.67,6.67,0,0,1-2,.31,7.38,7.38,0,0,1-5-2,12.13,12.13,0,0,1-7.32,2.29c-5.55,0-8.63-2.67-8.63-6.28,0-2.76,1.6-4.55,5.12-6.25-2-2.07-3-3.7-3-5.65,0-3.45,2.8-5.59,6.72-5.59s6.66,2,6.66,5.28c0,2.48-1.76,4.55-4.11,5.74l-1,.54,5.65,5.34a14,14,0,0,0,2.14-6.32l3.33.57a15.43,15.43,0,0,1-3,8,4.82,4.82,0,0,0,3.08,1.13A4.89,4.89,0,0,0,261.47,36.62Zm-13.82.69a7.73,7.73,0,0,0,4.56-1.44l-6.47-6.1c-2.2,1.16-3,2.2-3,3.93C242.72,35.83,244.86,37.31,247.65,37.31ZM244.52,22c0,1.29.47,2.33,2.38,4.24l.88-.4A4.06,4.06,0,0,0,250.32,22c0-1.72-1-2.76-2.95-2.76A2.56,2.56,0,0,0,244.52,22Z"/><path d="M273.05,28.61c0-7,4.65-11.84,12.31-11.84,6.41,0,10,3.39,10.84,7l-4.49.76c-.57-2.26-2.58-4.4-6.47-4.4-4.84,0-7.7,3.36-7.7,8.48,0,4.9,2.74,8.35,7.73,8.35s7.07-3.32,7.13-5.84v-.28H285V27.67h11.39v12h-3.2l-.31-3.65c-1.32,2.48-4.24,4.27-8.45,4.27C277.36,40.32,273.05,35.49,273.05,28.61Z"/><path d="M299.33,28.55c0-7.23,4.87-11.78,12.31-11.78S324,21.32,324,28.55s-4.86,11.77-12.31,11.77S299.33,35.71,299.33,28.55Zm20.07,0c0-5.12-3-8.36-7.76-8.36s-7.75,3.24-7.75,8.36,3,8.35,7.75,8.35S319.4,33.67,319.4,28.55Z"/><path class="cls-2" d="M60.14,11.15c3.52,2.78,7.27,6,8.09,10.36A1.71,1.71,0,0,1,68,23c-.58.57-1.54.16-2.23-.28L46.25,10.4a21.25,21.25,0,0,0-6.31-3.08c-3.22-.75-6.6,0-9.72,1.11a53.09,53.09,0,0,0-10,4.65,2.6,2.6,0,0,0-1.11,1c-.49,1.17.83,2.23,1.92,2.88A27.3,27.3,0,0,1,32.41,30.41c.37.94.63,2.15-.11,2.84-.91.85-2.38.09-3.37-.68l-9.32-7.22c-3.4-2.64-8.34-7-11.58-4.21-5.45,4.77-9.36,12.43-6.9,19.25,1.67,4.65,5.94,7.89,10.4,10a60.81,60.81,0,0,0,17.36,4.77c26,3.85,53.93-.5,75.25-15.87a38.63,38.63,0,0,0,10.08-9.87A19,19,0,0,0,117.43,16a16.32,16.32,0,0,0-7.88-10.59.84.84,0,0,0-.43-.16c-.22,0-.58.29-.49.5a14.09,14.09,0,0,1,1,4.24c0,.65-.12,1.52-.77,1.61a1.09,1.09,0,0,1-.76-.26,5.61,5.61,0,0,1-1.43-2c-1.66-3-3.67-6.38-7-7.22A61.37,61.37,0,0,0,87.23.4c-1-.06-2.26-.09-2.45.86a1.91,1.91,0,0,0,.44,1.33,66.72,66.72,0,0,1,4.32,8c.7,1.56,1.2,3.72-.2,4.7-3.53-.21-6.3-3-8.45-5.84s-4.2-6-7.44-7.39a16.33,16.33,0,0,0-6.33-1A85.19,85.19,0,0,0,52.94,2c-.85.12-1.91.5-1.91,1.35,0,.56.47,1,.9,1.32l8.21,6.49"/><path d="M11.69,20.39a4.8,4.8,0,0,1,1.6-1.75,13.36,13.36,0,0,1,2.06-1.13A31.46,31.46,0,0,1,19.77,16a27.35,27.35,0,0,1-4.11,2.16A19.53,19.53,0,0,0,11.69,20.39Z"/><path d="M39.81,7.08a19.6,19.6,0,0,1,5.52-1.93,27.52,27.52,0,0,0,5.49-1.72A12,12,0,0,1,45.5,5.88C43.6,6.33,41.71,6.62,39.81,7.08Z"/><path d="M74.57,2.22A6,6,0,0,1,77,1.48a15.49,15.49,0,0,1,2.55,0,23,23,0,0,0,5,.1,6.07,6.07,0,0,1-2.47.67,16.68,16.68,0,0,1-2.55,0A18.65,18.65,0,0,0,74.57,2.22Z"/><path d="M103.24,4a4.93,4.93,0,0,1,2.87.08c.94.34,1.6.88,2.53,1.14a2.42,2.42,0,0,1-1.46,0,12.75,12.75,0,0,1-1.32-.44C105.05,4.52,104.15,4.39,103.24,4Z"/><path d="M15.64,20.43c.75-.46,1.52-.88,2.26-1.35l2.24-1.39A13,13,0,0,1,18,19.29,12.48,12.48,0,0,1,15.64,20.43Z"/><path d="M17.92,21.47a8.84,8.84,0,0,1,4.43-2.86,23.32,23.32,0,0,0-2.29,1.3A24.86,24.86,0,0,0,17.92,21.47Z"/><path d="M19.1,22.69a12.58,12.58,0,0,1,5.21-2.86c-.9.44-1.8.85-2.66,1.34S20,22.16,19.1,22.69Z"/><path d="M20.36,23.9a2.69,2.69,0,0,1,1.06-1c.42-.25.86-.48,1.29-.7a16.1,16.1,0,0,1,2.75-1.06l-2.64,1.28L21.51,23A3.22,3.22,0,0,0,20.36,23.9Z"/><path d="M21.65,24.84A10.07,10.07,0,0,1,24,23.28a10.71,10.71,0,0,1,2.69-.87c-.88.35-1.75.68-2.58,1.1S22.47,24.37,21.65,24.84Z"/><path d="M23.14,26.05a6.63,6.63,0,0,1,4.33-2.32A14,14,0,0,0,23.14,26.05Z"/><path d="M24.19,26.7a9.36,9.36,0,0,1,4.39-1.91c-.75.3-1.5.56-2.22.89S24.92,26.35,24.19,26.7Z"/><path d="M25.23,28a7.31,7.31,0,0,1,2-1.34A7,7,0,0,1,29.56,26a20.15,20.15,0,0,0-4.33,2Z"/><path d="M26.32,29.21a7.51,7.51,0,0,1,1.76-1.12,7.7,7.7,0,0,1,2-.6c-.64.29-1.28.53-1.9.83S27,28.92,26.32,29.21Z"/><path d="M27.68,30.15a5.38,5.38,0,0,1,1.44-1,5.6,5.6,0,0,1,1.69-.51c-.53.26-1.07.47-1.58.74S28.21,29.89,27.68,30.15Z"/><path d="M28.51,31.21a5.51,5.51,0,0,1,1.44-1,5.73,5.73,0,0,1,1.67-.49c-.53.26-1.06.46-1.57.72S29,31,28.51,31.21Z"/><path d="M29.53,32.71a3.86,3.86,0,0,1,2.94-1.28A12.78,12.78,0,0,0,29.53,32.71Z"/><path d="M45.47,7.78c1.11-.51,2.25-.93,3.39-1.35s2.29-.8,3.46-1.12c-1.1.51-2.24.93-3.38,1.35S46.65,7.46,45.47,7.78Z"/><path d="M47.56,9a16.21,16.21,0,0,1,3.18-1.57,15.78,15.78,0,0,1,3.45-.83c-1.14.33-2.27.65-3.36,1.07S48.65,8.57,47.56,9Z"/><path d="M49,9.93a12.85,12.85,0,0,1,5.75-1.87c-1,.26-2,.5-2.91.83S50,9.56,49,9.93Z"/><path d="M49.62,11.76A11.35,11.35,0,0,1,52.56,10a11.56,11.56,0,0,1,3.32-.83,25.27,25.27,0,0,0-3.22,1.06A22.62,22.62,0,0,0,49.62,11.76Z"/><path d="M51,12.22a13.29,13.29,0,0,1,3.32-1.68A13,13,0,0,1,58,9.85a25.34,25.34,0,0,0-7,2.37Z"/><path d="M52.7,13.21a16.24,16.24,0,0,1,3.38-1.64,16,16,0,0,1,3.67-.84c-1.21.32-2.41.65-3.58,1.07S53.84,12.7,52.7,13.21Z"/><path d="M54.61,14a11.18,11.18,0,0,1,6-2,26.16,26.16,0,0,0-3,.81A25,25,0,0,0,54.61,14Z"/><path d="M55.48,15.16a14.46,14.46,0,0,1,3.14-1.52A14.65,14.65,0,0,1,62,12.88c-1.13.3-2.24.6-3.33,1S56.55,14.7,55.48,15.16Z"/><path d="M57,16.32a12.64,12.64,0,0,1,3-1.39,12.4,12.4,0,0,1,3.24-.58c-1.07.24-2.13.48-3.16.82A31.4,31.4,0,0,0,57,16.32Z"/><path d="M58.54,17.3a10.47,10.47,0,0,1,2.87-1.45,10.75,10.75,0,0,1,3.18-.52,22.63,22.63,0,0,0-3.1.76A23.45,23.45,0,0,0,58.54,17.3Z"/><path d="M61,18a7.79,7.79,0,0,1,2.32-1.12,7.66,7.66,0,0,1,2.56-.31,20.42,20.42,0,0,0-2.49.55A19.06,19.06,0,0,0,61,18Z"/><path d="M62.3,19.33a8.2,8.2,0,0,1,4.23-1.43c-.72.22-1.44.41-2.13.66S63,19.07,62.3,19.33Z"/><path d="M63.65,20.25A5.63,5.63,0,0,1,67.17,19c-.6.19-1.2.34-1.78.56S64.24,20,63.65,20.25Z"/><path d="M64.4,21.32a5.06,5.06,0,0,1,1.52-.89,5.14,5.14,0,0,1,1.73-.32c-.56.19-1.11.34-1.64.56S65,21.1,64.4,21.32Z"/><path d="M65.36,22.53a4,4,0,0,1,1.24-.71,4,4,0,0,1,1.4-.26c-.44.19-.88.32-1.31.49S65.82,22.39,65.36,22.53Z"/><path d="M78.88,4.33a13.88,13.88,0,0,1,3.23-1.17,14.05,14.05,0,0,1,3.42-.36c-1.14.17-2.26.34-3.36.6S80,4,78.88,4.33Z"/><path d="M80.18,5.31a9.27,9.27,0,0,1,2.64-.85,9.52,9.52,0,0,1,2.77-.06,27.13,27.13,0,0,0-2.73.31A22.53,22.53,0,0,0,80.18,5.31Z"/><path d="M80.37,6.55A3,3,0,0,1,81.75,6c.49-.1,1-.17,1.48-.25a16.47,16.47,0,0,1,3-.09c-1,.13-2,.21-2.95.34l-1.47.19A3.64,3.64,0,0,0,80.37,6.55Z"/><path d="M81.49,7.48a9.87,9.87,0,0,1,2.64-.56,9.42,9.42,0,0,1,2.7.16c-.9,0-1.79,0-2.68.09S82.38,7.36,81.49,7.48Z"/><path d="M82,9A9.53,9.53,0,0,1,85,8.19a9.63,9.63,0,0,1,3,.16,21.53,21.53,0,0,0-3,.09A20,20,0,0,0,82,9Z"/><path d="M83.21,10.33a9.31,9.31,0,0,1,2.6-.78,9.18,9.18,0,0,1,2.72,0,26.15,26.15,0,0,0-2.68.26A24.18,24.18,0,0,0,83.21,10.33Z"/><path d="M84.36,11.72a7.11,7.11,0,0,1,4.85-.7A16.26,16.26,0,0,0,84.36,11.72Z"/><path d="M86.05,12.9a4.86,4.86,0,0,1,3.63-.74A15.11,15.11,0,0,0,86.05,12.9Z"/><path d="M87.13,14.08a3.38,3.38,0,0,1,1.22-.59,3.42,3.42,0,0,1,1.35-.08c-.44.13-.87.2-1.29.32S87.57,14,87.13,14.08Z"/><path d="M88.13,15.06a1.57,1.57,0,0,1,.71-.42,1.58,1.58,0,0,1,.81,0,6.06,6.06,0,0,1-.74.27A5.94,5.94,0,0,1,88.13,15.06Z"/><path d="M25.33,12.88a36.51,36.51,0,0,1,5.13-2.73,14.29,14.29,0,0,1,5.66-1.23A8.07,8.07,0,0,1,39,9.5a17,17,0,0,1,2.57,1.36q2.49,1.48,4.95,3Q44,12.48,41.48,11a19.41,19.41,0,0,0-2.57-1.31,7.84,7.84,0,0,0-2.79-.52,14.06,14.06,0,0,0-5.6,1.14A51.05,51.05,0,0,0,25.33,12.88Z"/><path d="M22.48,15.75c.93.57,1.87,1.11,2.77,1.73a20.76,20.76,0,0,1,2.51,2.09,19,19,0,0,1,3.81,5.27,24.64,24.64,0,0,0-4-5.09,23.57,23.57,0,0,0-2.45-2.12Z"/><path d="M24.33,15.39a4,4,0,0,1,1.5.46,3.82,3.82,0,0,1,1.21,1A19.68,19.68,0,0,0,24.33,15.39Z"/><path d="M8.09,24a20.29,20.29,0,0,0-4.75,8.83A14.74,14.74,0,0,1,8.09,24Z"/><path d="M7.11,28A14.53,14.53,0,0,0,4.74,32.6,7.1,7.1,0,0,1,7.11,28Z"/><path d="M7.21,30.81a9.43,9.43,0,0,0-1.49,3.82A4.63,4.63,0,0,1,7.21,30.81Z"/><path d="M8.46,32a9.33,9.33,0,0,0-1.59,4A4.85,4.85,0,0,1,8.46,32Z"/><path d="M9.59,33.44c-.23.6-.47,1.18-.64,1.78s-.32,1.2-.48,1.82a5.58,5.58,0,0,1,.24-1.9A5.51,5.51,0,0,1,9.59,33.44Z"/><path d="M11,34.74a10,10,0,0,0-.76,3A3.43,3.43,0,0,1,11,34.74Z"/><path d="M3.1,33.79a16.15,16.15,0,0,0-.3,8.72A11.6,11.6,0,0,1,3.1,33.79Z"/><path d="M4.5,36.39A40.63,40.63,0,0,0,4,40.76a10,10,0,0,0,.67,4.29,8.11,8.11,0,0,1-.92-4.3A19.43,19.43,0,0,1,4.5,36.39Z"/><path d="M6.09,38.39a16.61,16.61,0,0,0-.2,8.08A11.26,11.26,0,0,1,6.09,38.39Z"/><path d="M7.62,39.19a25,25,0,0,0-.07,4,26,26,0,0,0,.55,3.92,14.1,14.1,0,0,1-.8-3.91A13.94,13.94,0,0,1,7.62,39.19Z"/><path d="M9.49,40.8a29.72,29.72,0,0,0-.24,4,28.25,28.25,0,0,0,.33,4,15.18,15.18,0,0,1-.09-8Z"/><path d="M11.41,41.11A19.11,19.11,0,0,0,11,45.37c0,1.43.11,2.86.15,4.3a26.86,26.86,0,0,1-.4-4.3A12.33,12.33,0,0,1,11.41,41.11Z"/><path d="M13.31,42.65a23.82,23.82,0,0,0-.4,3.66A25.18,25.18,0,0,0,13.07,50a13,13,0,0,1,.24-7.34Z"/><path d="M15.08,43.73a33,33,0,0,0-.36,3.56,35.9,35.9,0,0,0,0,3.59,14,14,0,0,1-.29-3.6A14.28,14.28,0,0,1,15.08,43.73Z"/><path d="M17.05,44.49a35.33,35.33,0,0,0-.51,7.4,14.54,14.54,0,0,1-.19-3.73A15.36,15.36,0,0,1,17.05,44.49Z"/><path d="M18.73,45.47c-.16,1.19-.32,2.37-.39,3.56s-.11,2.38-.13,3.58a16.06,16.06,0,0,1-.12-3.6A16.45,16.45,0,0,1,18.73,45.47Z"/><path d="M20.26,46.52A22,22,0,0,0,20,52.66a10.05,10.05,0,0,1-.34-3.09A9.88,9.88,0,0,1,20.26,46.52Z"/><path d="M22.3,46.77c-.13,1-.27,2.09-.32,3.14s-.07,2.1-.06,3.16a13.05,13.05,0,0,1-.19-3.18A13.29,13.29,0,0,1,22.3,46.77Z"/><path d="M24.26,47.16a18.29,18.29,0,0,0-.32,6.3A9.73,9.73,0,0,1,24.26,47.16Z"/><path d="M26.19,47.58c0,1-.07,2-.14,2.93s-.19,2-.38,2.91c0-1,.06-2,.13-2.93S26,48.55,26.19,47.58Z"/><path d="M27.74,47.51a16.08,16.08,0,0,1,.14,2.77A14.89,14.89,0,0,1,27.53,53c0-.92.08-1.84.1-2.76S27.68,48.44,27.74,47.51Z"/><path d="M29.52,47.64a17.58,17.58,0,0,1,.15,3,16.41,16.41,0,0,1-.37,3Z"/><path d="M31.5,47.79a19,19,0,0,1,.08,3.29,18.72,18.72,0,0,1-.47,3.25c.06-1.09.17-2.18.22-3.27S31.43,48.89,31.5,47.79Z"/><path d="M33.42,47.93a14.24,14.24,0,0,1,.12,3,14,14,0,0,1-.48,2.95c.07-1,.19-2,.23-3S33.37,48.93,33.42,47.93Z"/><path d="M35.3,47.47a17.73,17.73,0,0,1,.32,3.64,17,17,0,0,1-.4,3.63c.07-1.22.15-2.43.15-3.64S35.34,48.68,35.3,47.47Z"/><path d="M37,45.67a31,31,0,0,1,.5,5,13.46,13.46,0,0,1-.8,4.95,18.39,18.39,0,0,0,.55-4.95C37.26,49,37.08,47.34,37,45.67Z"/><path d="M39.34,46.05a23.61,23.61,0,0,1,.15,4.37,23.36,23.36,0,0,1-.65,4.32c.17-1.45.33-2.89.4-4.34S39.34,47.51,39.34,46.05Z"/><path d="M40.87,46c.12.75.25,1.5.31,2.27a19.44,19.44,0,0,1,0,2.29,17.18,17.18,0,0,1-.82,4.5A31.44,31.44,0,0,0,41,50.5,38.49,38.49,0,0,0,40.87,46Z"/><path d="M43,45.8a22.16,22.16,0,0,1-.37,9.31,42.74,42.74,0,0,0,.43-4.65A45.32,45.32,0,0,0,43,45.8Z"/><path d="M45.2,46.13a28.13,28.13,0,0,1,.2,4.94,27.85,27.85,0,0,1-.63,4.9c.16-1.64.32-3.27.38-4.91S45.22,47.78,45.2,46.13Z"/><path d="M47.09,44.66A25.54,25.54,0,0,1,47,55.89a44.14,44.14,0,0,0,.43-5.61A44,44,0,0,0,47.09,44.66Z"/><path d="M49.05,44.6A25.39,25.39,0,0,1,49.38,50a25.8,25.8,0,0,1-.8,5.33A48.07,48.07,0,0,0,49.13,50,48,48,0,0,0,49.05,44.6Z"/><path d="M50.59,45.22a22.51,22.51,0,0,1,.24,5.25,22.11,22.11,0,0,1-1,5.16,37.4,37.4,0,0,0,.75-10.41Z"/><path d="M52,45.23a19.82,19.82,0,0,1-.49,10.69,30.94,30.94,0,0,0,.73-5.32A31.16,31.16,0,0,0,52,45.23Z"/><path d="M53.9,44.15a23.24,23.24,0,0,1,.64,5.51,22.53,22.53,0,0,1-.72,5.49,36.22,36.22,0,0,0,.47-5.49A37.72,37.72,0,0,0,53.9,44.15Z"/><path d="M55.65,44.27a27.68,27.68,0,0,1,.17,11A50.94,50.94,0,0,0,56,49.78,53.5,53.5,0,0,0,55.65,44.27Z"/><path d="M57.84,44.27a28.87,28.87,0,0,1,.3,5.5,28.56,28.56,0,0,1-.72,5.46c.22-1.82.42-3.64.47-5.47S57.92,46.1,57.84,44.27Z"/><path d="M59.61,43.62a30.9,30.9,0,0,1,.21,5.85,31.42,31.42,0,0,1-.88,5.78c.29-1.93.53-3.86.63-5.8A56.67,56.67,0,0,0,59.61,43.62Z"/><path d="M61.33,43.24A21,21,0,0,1,61,53.68a34,34,0,0,0,.56-5.21A32.74,32.74,0,0,0,61.33,43.24Z"/><path d="M63.21,42.77a18.14,18.14,0,0,1-.5,11.28A24.86,24.86,0,0,0,63.21,42.77Z"/><path d="M88.1,3.74a5.64,5.64,0,0,1,1.87,2A12.4,12.4,0,0,1,91,8.33,16.44,16.44,0,0,0,88.1,3.74Z"/><path d="M55.52,4c-.2.28,0,.62.21.84s.42.47.65.69a13.76,13.76,0,0,0,1.43,1.22c1,.76,2.1,1.4,3.16,2.1a43,43,0,0,1,5.9,4.78,59.55,59.55,0,0,0-6-4.58c-1-.71-2.12-1.38-3.12-2.16A14.39,14.39,0,0,1,56.29,5.6c-.21-.23-.41-.48-.61-.73S55.3,4.26,55.52,4Z"/><path d="M61.89,8.06c.93.74,1.93,1.36,2.92,2a9.87,9.87,0,0,1,2.65,2.38,16.36,16.36,0,0,0-2.79-2.18A14.5,14.5,0,0,1,61.89,8.06Z"/><path d="M63.05,3a10.28,10.28,0,0,1,2.46-.4,10,10,0,0,1,2.5.18c-.84,0-1.66,0-2.48.07S63.88,2.9,63.05,3Z"/><path d="M70.55,3.16a13.77,13.77,0,0,1,3.52,2.39,15.43,15.43,0,0,1,1.46,1.57A4.49,4.49,0,0,1,76.59,9a2.43,2.43,0,0,0-.52-.91q-.33-.41-.69-.81a19,19,0,0,0-1.48-1.5A22.11,22.11,0,0,0,70.55,3.16Z"/><path d="M57.29,34.84A20,20,0,0,1,59,42.6c-.21-1.32-.42-2.62-.72-3.91S57.66,36.12,57.29,34.84Z"/><path d="M59,33.9a18.36,18.36,0,0,1,1.4,3.79,18.82,18.82,0,0,1,.57,4c-.23-1.33-.47-2.65-.81-3.94S59.44,35.18,59,33.9Z"/><path d="M61.14,34.85a15.19,15.19,0,0,1,1.2,3.26,14.38,14.38,0,0,1,.39,3.45c-.18-1.14-.36-2.27-.64-3.39S61.49,36,61.14,34.85Z"/><path d="M63.3,37.22a7.66,7.66,0,0,1,.51,1.69,7.85,7.85,0,0,1,.12,1.75c-.16-.57-.25-1.14-.37-1.71S63.35,37.81,63.3,37.22Z"/><path d="M57,39a4.68,4.68,0,0,1,.54,1.49,4.47,4.47,0,0,1,0,1.59c-.1-.52-.16-1-.26-1.54S57.11,39.52,57,39Z"/><path d="M55.84,39.78a3,3,0,0,1,.62,2.76A9.06,9.06,0,0,0,55.84,39.78Z"/><path d="M54.5,40.14a3.71,3.71,0,0,1,.41,1.2,3.44,3.44,0,0,1,0,1.28c-.1-.42-.14-.83-.22-1.24S54.53,40.57,54.5,40.14Z"/><path d="M64.68,41.19a25.62,25.62,0,0,1,.47,13.42,35.25,35.25,0,0,0-.47-13.42Z"/><path d="M66.48,40.38a42.32,42.32,0,0,1,.88,6.73,43.86,43.86,0,0,1-.18,6.78c0-2.26.06-4.52-.07-6.77S66.76,42.62,66.48,40.38Z"/><path d="M68.44,40.62a25,25,0,0,1,.85,12.49,35.66,35.66,0,0,0,.12-6.28A36.46,36.46,0,0,0,68.44,40.62Z"/><path d="M70.27,38.66a27.19,27.19,0,0,1,.79,13.44,38.09,38.09,0,0,0,.2-6.75A38.85,38.85,0,0,0,70.27,38.66Z"/><path d="M72.16,38.3a31.88,31.88,0,0,1,1.26,7.19A32.24,32.24,0,0,1,73,52.77a49,49,0,0,0,.14-7.27A46.21,46.21,0,0,0,72.16,38.3Z"/><path d="M74.05,37.3a31.89,31.89,0,0,1,1.19,15.31,41.39,41.39,0,0,0,.09-7.71A41.76,41.76,0,0,0,74.05,37.3Z"/><path d="M76.13,37.26a32,32,0,0,1,1.34,7.21,31.47,31.47,0,0,1-.35,7.32,45.63,45.63,0,0,0,.1-7.3A46.4,46.4,0,0,0,76.13,37.26Z"/><path d="M77.94,36.84A42.29,42.29,0,0,1,79.18,52,60.71,60.71,0,0,0,79,44.4,62.23,62.23,0,0,0,77.94,36.84Z"/><path d="M79.71,36.5a39.56,39.56,0,0,1,1.23,6.74A38.24,38.24,0,0,1,81,50.09a67.4,67.4,0,0,0-.31-6.82C80.49,41,80.13,38.75,79.71,36.5Z"/><path d="M81.81,36A38.62,38.62,0,0,1,83,43a37.41,37.41,0,0,1-.12,7.1,64.3,64.3,0,0,0-.12-7.08A66.78,66.78,0,0,0,81.81,36Z"/><path d="M83.58,34.79a35.63,35.63,0,0,1,1,14.43,53.15,53.15,0,0,0,0-7.25A54.64,54.64,0,0,0,83.58,34.79Z"/><path d="M85.36,34.53A28.6,28.6,0,0,1,86.3,48a40,40,0,0,0,.08-6.75A40.72,40.72,0,0,0,85.36,34.53Z"/><path d="M87.21,33.9A29.94,29.94,0,0,1,88.56,41a30.43,30.43,0,0,1-.36,7.2,42.55,42.55,0,0,0-1-14.28Z"/><path d="M88.62,33.07A28.32,28.32,0,0,1,90,47.7a38,38,0,0,0-1.37-14.63Z"/><path d="M90.8,32.61a24.57,24.57,0,0,1,1.37,6.46,24.27,24.27,0,0,1-.39,6.59,34.21,34.21,0,0,0-1-13Z"/><path d="M92.83,32.54a23.67,23.67,0,0,1,.71,12.38,34.15,34.15,0,0,0,.22-6.23A34.75,34.75,0,0,0,92.83,32.54Z"/><path d="M94.36,31.33a25.84,25.84,0,0,1,.92,12.58,37.68,37.68,0,0,0-.92-12.58Z"/><path d="M95.8,30a20.52,20.52,0,0,1,1,12.57A27.34,27.34,0,0,0,95.8,30Z"/><path d="M97.94,30a26.6,26.6,0,0,1,1,12.4,40,40,0,0,0-1-12.4Z"/><path d="M99.55,28.74A21.51,21.51,0,0,1,101,41.48,28.58,28.58,0,0,0,99.55,28.74Z"/><path d="M101.6,27.64a29.27,29.27,0,0,1,1.24,12.24,47.26,47.26,0,0,0-1.24-12.24Z"/><path d="M103.25,26.92A20.22,20.22,0,0,1,104.38,38a30.59,30.59,0,0,0,0-5.58A30.21,30.21,0,0,0,103.25,26.92Z"/><path d="M104.72,25.94a14.25,14.25,0,0,1,1.94,10A19.2,19.2,0,0,0,104.72,25.94Z"/><path d="M106.58,25.69a15.76,15.76,0,0,1,1.76,9.21A24,24,0,0,0,106.58,25.69Z"/><path d="M108.27,24.14a15.48,15.48,0,0,1,1.51,4.23,15.31,15.31,0,0,1,.23,4.48,25.13,25.13,0,0,0-.48-4.43A25.89,25.89,0,0,0,108.27,24.14Z"/><path d="M109.46,23.21a8.39,8.39,0,0,1,2.1,6.7A12.23,12.23,0,0,0,109.46,23.21Z"/><path d="M110.79,21.69a6.5,6.5,0,0,1,2.11,6.47A8.52,8.52,0,0,0,110.79,21.69Z"/><path d="M112.05,20.32a3,3,0,0,1,1,1.15c.26.45.49.9.71,1.37a9.31,9.31,0,0,1,.53,1.45,4.71,4.71,0,0,1,.13,1.54,8.89,8.89,0,0,0-.88-2.89c-.21-.46-.44-.92-.66-1.38A3.63,3.63,0,0,0,112.05,20.32Z"/><path d="M113.25,19a4.3,4.3,0,0,1,2.25,4.28A6.15,6.15,0,0,0,113.25,19Z"/><path d="M114.38,17.28a2.93,2.93,0,0,1,2,3.23A4.28,4.28,0,0,0,114.38,17.28Z"/><path d="M98.84,24.66a4.11,4.11,0,0,1,.45,3c-.07-.51-.1-1-.19-1.5S98.93,25.17,98.84,24.66Z"/><path d="M100.1,23.75a2.87,2.87,0,0,1,.73,3.13A5.46,5.46,0,0,0,100.1,23.75Z"/><path d="M101.63,22.94a2.94,2.94,0,0,1,.82,2.67A9.61,9.61,0,0,0,101.63,22.94Z"/><path d="M102.88,19.08c.33,1,.91,1.86,1.18,2.9a6.38,6.38,0,0,1,0,3.13,9.29,9.29,0,0,0-.26-3.07C103.6,21,103,20.13,102.88,19.08Z"/><path d="M104.91,20.59a4.54,4.54,0,0,1,.89,3.34A16.15,16.15,0,0,0,104.91,20.59Z"/><path d="M105,10.79a11.42,11.42,0,0,1-2.41-3.23,6.37,6.37,0,0,0-2.76-2.75,28,28,0,0,0-3.8-1.33,7.08,7.08,0,0,0-4-.07,6.4,6.4,0,0,1,4-.09,28.87,28.87,0,0,1,3.85,1.26,6.41,6.41,0,0,1,2.81,2.9A14,14,0,0,0,105,10.79Z"/><path d="M91.67,9.76a3.79,3.79,0,0,1,.52,1.14,3.53,3.53,0,0,1,.13,1.25c-.16-.39-.25-.79-.37-1.18S91.73,10.18,91.67,9.76Z"/><path d="M105.09,5.85a5.56,5.56,0,0,1,2,0,5.73,5.73,0,0,1,1.82.68c-.63-.16-1.24-.33-1.87-.43S105.74,5.93,105.09,5.85Z"/><path d="M105.82,6.9a5,5,0,0,1,3.12.61c-.53-.09-1-.23-1.56-.32S106.35,7,105.82,6.9Z"/><path d="M106.37,8.33a3.41,3.41,0,0,1,2.74.49A23.49,23.49,0,0,0,106.37,8.33Z"/><path d="M107.29,9.78A1.35,1.35,0,0,1,109,10,5.37,5.37,0,0,0,107.29,9.78Z"/></svg>